<?xml version="1.0" encoding="UTF-8" standalone="no"?>
<!-- Created with Inkscape (http://www.inkscape.org/) -->

<svg
   width="200mm"
   height="200mm"
   viewBox="0 0 200 200"
   version="1.1"
   id="svg1"
   inkscape:version="1.3.2 (091e20e, 2023-11-25, custom)"
   sodipodi:docname="AllOneAIMini.svg"
   xmlns:inkscape="http://www.inkscape.org/namespaces/inkscape"
   xmlns:sodipodi="http://sodipodi.sourceforge.net/DTD/sodipodi-0.dtd"
   xmlns:xlink="http://www.w3.org/1999/xlink"
   xmlns="http://www.w3.org/2000/svg"
   xmlns:svg="http://www.w3.org/2000/svg">
  <sodipodi:namedview
     id="namedview1"
     pagecolor="#ffffff"
     bordercolor="#000000"
     borderopacity="0.25"
     inkscape:showpageshadow="2"
     inkscape:pageopacity="0.0"
     inkscape:pagecheckerboard="0"
     inkscape:deskcolor="#d1d1d1"
     inkscape:document-units="mm"
     inkscape:zoom="0.63695988"
     inkscape:cx="396.41429"
     inkscape:cy="410.54391"
     inkscape:window-width="1536"
     inkscape:window-height="953"
     inkscape:window-x="-8"
     inkscape:window-y="-8"
     inkscape:window-maximized="1"
     inkscape:current-layer="layer1" />
  <defs
     id="defs1">
    <linearGradient
       inkscape:collect="always"
       xlink:href="#linearGradient3"
       id="linearGradient4"
       x1="147.79445"
       y1="34.501736"
       x2="156.5273"
       y2="42.961678"
       gradientUnits="userSpaceOnUse" />
    <linearGradient
       id="linearGradient3"
       inkscape:collect="always">
      <stop
         style="stop-color:#56ff83;stop-opacity:1;"
         offset="0"
         id="stop3" />
      <stop
         style="stop-color:#56e9ff;stop-opacity:1;"
         offset="0.70662463"
         id="stop4" />
    </linearGradient>
    <linearGradient
       inkscape:collect="always"
       xlink:href="#linearGradient6"
       id="linearGradient5"
       gradientUnits="userSpaceOnUse"
       x1="147.79445"
       y1="34.501736"
       x2="156.5273"
       y2="42.961678" />
    <linearGradient
       id="linearGradient6"
       inkscape:collect="always">
      <stop
         style="stop-color:#56f6ff;stop-opacity:1;"
         offset="0"
         id="stop5" />
      <stop
         style="stop-color:#56beff;stop-opacity:1;"
         offset="0.70662463"
         id="stop6" />
    </linearGradient>
  </defs>
  <g
     inkscape:label="Layer 1"
     inkscape:groupmode="layer"
     id="layer1">
    <path
       sodipodi:type="star"
       style="fill:url(#linearGradient4);fill-opacity:1;stroke-width:0.264583"
       id="path2"
       inkscape:flatsided="false"
       sodipodi:sides="4"
       sodipodi:cx="152.43378"
       sodipodi:cy="39.14106"
       sodipodi:r1="21.833338"
       sodipodi:r2="9.6532907"
       sodipodi:arg1="1.5707963"
       sodipodi:arg2="2.3561945"
       inkscape:rounded="0.2"
       inkscape:randomized="0"
       d="m 152.43378,60.974398 c -3.29737,0 -4.49432,-12.675839 -6.82591,-15.007431 -2.33159,-2.331591 -15.00743,-3.528538 -15.00743,-6.825907 0,-3.297368 12.67584,-4.494316 15.00743,-6.825908 2.33159,-2.331591 3.52854,-15.00743 6.82591,-15.00743 3.29736,0 4.49431,12.675839 6.8259,15.007431 2.3316,2.331591 15.00743,3.528538 15.00743,6.825906 0,3.297369 -12.67583,4.494317 -15.00743,6.825908 -2.33159,2.331592 -3.52853,15.007431 -6.8259,15.007431 z"
       transform="matrix(3.0240399,0,0,3.0240399,-381.52283,-35.568089)"
       inkscape:transform-center-y="1.0357166e-06"
       inkscape:transform-center-x="3.2765032e-06" />
    <path
       sodipodi:type="star"
       style="fill:url(#linearGradient5);fill-opacity:1;stroke-width:0.264583"
       id="path2-3"
       inkscape:flatsided="false"
       sodipodi:sides="4"
       sodipodi:cx="152.43378"
       sodipodi:cy="39.14106"
       sodipodi:r1="21.833338"
       sodipodi:r2="9.6532907"
       sodipodi:arg1="1.5707963"
       sodipodi:arg2="2.3561945"
       inkscape:rounded="0.2"
       inkscape:randomized="0"
       d="m 152.43378,60.974398 c -3.29737,0 -4.49432,-12.675839 -6.82591,-15.007431 -2.33159,-2.331591 -15.00743,-3.528538 -15.00743,-6.825907 0,-3.297368 12.67584,-4.494316 15.00743,-6.825908 2.33159,-2.331591 3.52854,-15.00743 6.82591,-15.00743 3.29736,0 4.49431,12.675839 6.8259,15.007431 2.3316,2.331591 15.00743,3.528538 15.00743,6.825906 0,3.297369 -12.67583,4.494317 -15.00743,6.825908 -2.33159,2.331592 -3.52853,15.007431 -6.8259,15.007431 z"
       transform="matrix(1.9845848,0,0,1.9845848,-158.45886,62.202322)" />
  </g>
</svg>
