<?xml version="1.0" encoding="UTF-8" standalone="no"?>
<!-- Created with Inkscape (http://www.inkscape.org/) -->

<svg
   width="510mm"
   height="97mm"
   viewBox="0 0 510 97"
   version="1.1"
   id="svg1"
   inkscape:version="1.4 (86a8ad7, 2024-10-11)"
   sodipodi:docname="AllOneForms.svg"
   xmlns:inkscape="http://www.inkscape.org/namespaces/inkscape"
   xmlns:sodipodi="http://sodipodi.sourceforge.net/DTD/sodipodi-0.dtd"
   xmlns:xlink="http://www.w3.org/1999/xlink"
   xmlns="http://www.w3.org/2000/svg"
   xmlns:svg="http://www.w3.org/2000/svg">
  <sodipodi:namedview
     id="namedview1"
     pagecolor="#ffffff"
     bordercolor="#000000"
     borderopacity="0.25"
     inkscape:showpageshadow="2"
     inkscape:pageopacity="0.0"
     inkscape:pagecheckerboard="0"
     inkscape:deskcolor="#d1d1d1"
     inkscape:document-units="mm"
     inkscape:zoom="0.64"
     inkscape:cx="902.34375"
     inkscape:cy="283.59375"
     inkscape:window-width="1920"
     inkscape:window-height="1009"
     inkscape:window-x="-8"
     inkscape:window-y="-8"
     inkscape:window-maximized="1"
     inkscape:current-layer="layer1" />
  <defs
     id="defs1">
    <linearGradient
       id="linearGradient1"
       inkscape:collect="always">
      <stop
         style="stop-color:#7c00fd;stop-opacity:1;"
         offset="0"
         id="stop1" />
      <stop
         style="stop-color:#00e1ee;stop-opacity:1;"
         offset="1"
         id="stop2" />
    </linearGradient>
    <linearGradient
       inkscape:collect="always"
       xlink:href="#linearGradient1"
       id="linearGradient2"
       x1="18.769516"
       y1="40.115242"
       x2="399.6803"
       y2="47.107807"
       gradientUnits="userSpaceOnUse" />
  </defs>
  <g
     inkscape:label="Layer 1"
     inkscape:groupmode="layer"
     id="layer1">
    <path
       style="font-weight:600;font-size:61.9189px;font-family:'Plus Jakarta Sans';-inkscape-font-specification:'Plus Jakarta Sans Semi-Bold';fill:url(#linearGradient2);stroke-width:11.2478"
       d="m 16.840738,69.600174 16.222751,-46.12958 h 9.04016 L 58.3264,69.600174 H 50.524619 L 46.995242,59.259718 H 28.233815 L 24.642519,69.600174 Z M 30.339058,52.758233 H 44.766161 L 36.592867,28.609862 H 38.63619 Z M 63.09412,69.600174 V 22.727567 h 6.996836 v 46.872607 z m 15.170182,0 V 22.727567 h 6.996835 v 46.872607 z m 38.265938,0.743027 q -5.01543,0 -9.34976,-1.795648 -4.2724,-1.795648 -7.554103,-5.015431 -3.219783,-3.219783 -5.07735,-7.554106 -1.795648,-4.334323 -1.795648,-9.473592 0,-5.139268 1.795648,-9.473591 1.857567,-4.396242 5.07735,-7.554106 3.219783,-3.219783 7.554103,-4.953512 4.33433,-1.795648 9.34976,-1.795648 5.07735,0 9.34975,1.795648 4.33432,1.733729 7.55411,4.953512 3.2817,3.219783 5.07735,7.554106 1.79564,4.334323 1.79564,9.473591 0,5.139269 -1.85756,9.473592 -1.79565,4.334323 -5.01543,7.554106 -3.21979,3.219783 -7.55411,5.015431 -4.33432,1.795648 -9.34975,1.795648 z m 0,-6.687241 q 3.59129,0 6.5634,-1.300297 3.03403,-1.300297 5.26311,-3.591296 2.22908,-2.352919 3.46745,-5.448864 1.23838,-3.157864 1.23838,-6.811079 0,-3.653215 -1.23838,-6.74916 -1.23837,-3.095945 -3.46745,-5.448863 -2.22908,-2.352918 -5.26311,-3.653215 -2.97211,-1.300297 -6.5634,-1.300297 -3.5913,0 -6.62533,1.300297 -2.9721,1.300297 -5.20118,3.653215 -2.22908,2.352918 -3.46746,5.448863 -1.17646,3.095945 -1.17646,6.74916 0,3.653215 1.17646,6.811079 1.23838,3.095945 3.46746,5.448864 2.22908,2.290999 5.2631,3.591296 3.03403,1.300297 6.56341,1.300297 z m 31.26905,5.944214 V 36.102049 h 6.68725 v 6.563404 l -0.80495,-0.866865 q 1.23838,-3.157864 3.96281,-4.767755 2.72443,-1.67181 6.31573,-1.67181 3.71513,0 6.5634,1.609891 2.84827,1.609891 4.45816,4.458161 1.60989,2.848269 1.60989,6.563403 v 21.609696 h -6.93491 V 49.848045 q 0,-2.538675 -0.92879,-4.272404 -0.92878,-1.795648 -2.66251,-2.724432 -1.67181,-0.990702 -3.83897,-0.990702 -2.16716,0 -3.90089,0.990702 -1.67181,0.928784 -2.6006,2.724432 -0.92878,1.795648 -0.92878,4.272404 v 19.752129 z m 52.01191,0.743027 q -5.01543,0 -8.91632,-2.291 -3.83897,-2.352918 -6.00613,-6.315727 -2.16716,-4.024729 -2.16716,-8.978241 0,-5.077349 2.16716,-8.97824 2.22908,-3.900891 5.94421,-6.129971 3.71514,-2.290999 8.42097,-2.290999 3.77705,0 6.74916,1.300296 2.97211,1.300297 5.01543,3.591297 2.04333,2.22908 3.09595,5.139268 1.11454,2.910189 1.11454,6.19189 0,0.804946 -0.0619,1.67181 -0.0619,0.866865 -0.24768,1.609892 h -26.68704 v -5.572701 h 22.72423 l -3.34362,2.538675 q 0.61919,-3.034026 -0.43343,-5.386944 -0.9907,-2.414838 -3.09594,-3.777053 -2.04333,-1.424135 -4.82968,-1.424135 -2.78635,0 -4.95351,1.424135 -2.16716,1.362215 -3.34362,3.962809 -1.17646,2.538675 -0.92878,6.19189 -0.3096,3.40554 0.92878,5.944215 1.3003,2.538674 3.5913,3.962809 2.35291,1.424135 5.32502,1.424135 3.03403,0 5.13927,-1.362216 2.16716,-1.362216 3.40554,-3.529377 l 5.69654,2.78635 q -0.9907,2.352918 -3.09595,4.272404 -2.04332,1.857567 -4.95351,2.972107 -2.84827,1.052622 -6.25381,1.052622 z m 22.91005,-0.743027 v -46.12958 h 30.03067 v 6.501484 h -22.72424 v 13.869834 h 20.24748 v 6.501484 h -20.24748 v 19.256778 z m 50.71148,0.743027 q -4.82967,0 -8.8544,-2.291 -3.96281,-2.290999 -6.31573,-6.253808 -2.35292,-3.96281 -2.35292,-8.978241 0,-5.07735 2.35292,-8.97824 2.35292,-3.96281 6.31573,-6.19189 3.96281,-2.290999 8.8544,-2.290999 4.95351,0 8.8544,2.290999 3.96281,2.22908 6.25381,6.19189 2.35292,3.90089 2.35292,8.97824 0,5.07735 -2.35292,9.04016 -2.35292,3.962809 -6.31573,6.253808 -3.96281,2.229081 -8.79248,2.229081 z m 0,-6.501485 q 2.97211,0 5.26311,-1.424134 2.291,-1.424135 3.59129,-3.900891 1.36222,-2.538675 1.36222,-5.696539 0,-3.157864 -1.36222,-5.63462 -1.30029,-2.476756 -3.59129,-3.90089 -2.291,-1.424135 -5.26311,-1.424135 -2.91019,0 -5.26311,1.424135 -2.291,1.424134 -3.65321,3.90089 -1.3003,2.476756 -1.3003,5.63462 0,3.157864 1.3003,5.696539 1.36221,2.476756 3.65321,3.900891 2.35292,1.424134 5.26311,1.424134 z m 24.2722,5.758458 V 36.102049 h 6.68724 v 6.74916 l -0.61919,-0.990702 q 1.11454,-3.281702 3.59129,-4.705836 2.47676,-1.486054 5.94422,-1.486054 h 2.04332 v 6.377647 h -2.91019 q -3.46745,0 -5.63462,2.167161 -2.10524,2.105243 -2.10524,6.068052 v 19.318697 z m 22.41461,0 V 36.102049 h 6.68724 v 7.244512 l -0.86687,-1.114541 q 1.05263,-3.405539 3.83898,-5.139268 2.78635,-1.733729 6.37764,-1.733729 4.02473,0 7.12068,2.167161 3.15786,2.105243 4.21048,5.63462 l -1.9814,0.185757 q 1.48605,-4.024729 4.52008,-6.006134 3.09594,-1.981404 7.05875,-1.981404 3.46746,0 6.25381,1.609891 2.84827,1.609891 4.52008,4.458161 1.67181,2.848269 1.67181,6.501484 v 21.671615 h -6.99684 V 49.848045 q 0,-2.538675 -0.92878,-4.272404 -0.86686,-1.795648 -2.47676,-2.724432 -1.54797,-0.990702 -3.65321,-0.990702 -2.10524,0 -3.71513,0.990702 -1.6099,0.928784 -2.53868,2.724432 -0.92878,1.795648 -0.92878,4.272404 v 19.752129 h -6.93492 V 49.848045 q 0,-2.538675 -0.92878,-4.272404 -0.86687,-1.795648 -2.47676,-2.724432 -1.54797,-0.990702 -3.71513,-0.990702 -2.10525,0 -3.71514,0.990702 -1.60989,0.928784 -2.53867,2.724432 -0.86687,1.795648 -0.86687,4.272404 v 19.752129 z m 69.28728,0.743027 q -5.13927,0 -9.04016,-2.538675 -3.83897,-2.538675 -5.38694,-6.811079 l 5.38694,-2.538675 q 1.36222,2.848269 3.71514,4.52008 2.41483,1.67181 5.32502,1.67181 2.47676,0 4.02473,-1.11454 1.54797,-1.11454 1.54797,-3.034026 0,-1.238378 -0.68111,-1.981405 -0.6811,-0.804946 -1.73373,-1.300297 -0.9907,-0.495351 -2.04332,-0.743027 l -5.26311,-1.486053 q -4.33432,-1.238378 -6.50148,-3.715134 -2.10524,-2.538675 -2.10524,-5.882296 0,-3.034026 1.54797,-5.263106 1.54797,-2.291 4.2724,-3.529378 2.72444,-1.238377 6.12998,-1.238377 4.58199,0 8.17329,2.290999 3.5913,2.22908 5.07735,6.253809 l -5.38694,2.538675 q -0.99071,-2.414838 -3.15787,-3.838972 -2.10524,-1.424135 -4.76775,-1.424135 -2.291,0 -3.65322,1.11454 -1.36221,1.052622 -1.36221,2.786351 0,1.176459 0.61918,1.981405 0.61919,0.743026 1.6099,1.238378 0.9907,0.433432 2.04332,0.743026 l 5.44886,1.609892 q 4.14857,1.176459 6.37765,3.715134 2.22908,2.476756 2.22908,5.944214 0,2.972107 -1.60989,5.263106 -1.54797,2.229081 -4.33432,3.529378 -2.78636,1.238378 -6.50149,1.238378 z"
       id="text1"
       aria-label="AllOneForms" />
    <rect
       style="fill:#28e6c4;stroke:#45b590;stroke-width:1.00542;stroke-dasharray:none;stroke-opacity:1"
       id="rect1"
       width="48.211895"
       height="62.933086"
       x="435.51285"
       y="16.740377"
       rx="3.7684598"
       ry="3.9247766" />
    <rect
       style="fill:#02cee1;fill-opacity:1;stroke-width:4.61399"
       id="rect2"
       width="18.769516"
       height="18.769516"
       x="438.91711"
       y="20.052645"
       rx="3.7684598"
       ry="3.9247766" />
    <rect
       style="fill:#288de6;fill-opacity:1;stroke-width:4.61399"
       id="rect3"
       width="21.502804"
       height="3.7616217"
       x="458.60669"
       y="47.746883"
       rx="0.52443546"
       ry="0.4576425" />
    <rect
       style="fill:#4d28e6;fill-opacity:1;stroke-width:4.61399"
       id="rect3-8"
       width="21.502804"
       height="3.7616217"
       x="438.70386"
       y="59.38504"
       rx="0.52443546"
       ry="0.4576425" />
    <rect
       style="fill:#4d28e6;fill-opacity:1;stroke-width:3.97786"
       id="rect3-8-5"
       width="15.982358"
       height="3.7616217"
       x="438.7561"
       y="64.149521"
       rx="0.38979638"
       ry="0.4576425" />
    <rect
       style="fill:#4d28e6;fill-opacity:1;stroke-width:3.97786"
       id="rect3-8-5-1"
       width="15.982358"
       height="3.7616217"
       x="443.87619"
       y="68.647438"
       rx="0.38979638"
       ry="0.4576425" />
  </g>
</svg>
