<?xml version="1.0" encoding="UTF-8" standalone="no"?>
<!-- Created with Inkscape (http://www.inkscape.org/) -->

<svg
   width="210mm"
   height="35mm"
   viewBox="0 0 210 35"
   version="1.1"
   id="svg1"
   inkscape:version="1.4 (86a8ad7, 2024-10-11)"
   sodipodi:docname="AllOneTech.svg"
   xmlns:inkscape="http://www.inkscape.org/namespaces/inkscape"
   xmlns:sodipodi="http://sodipodi.sourceforge.net/DTD/sodipodi-0.dtd"
   xmlns:xlink="http://www.w3.org/1999/xlink"
   xmlns="http://www.w3.org/2000/svg"
   xmlns:svg="http://www.w3.org/2000/svg">
  <sodipodi:namedview
     id="namedview1"
     pagecolor="#ffffff"
     bordercolor="#000000"
     borderopacity="0.25"
     inkscape:showpageshadow="2"
     inkscape:pageopacity="0.0"
     inkscape:pagecheckerboard="0"
     inkscape:deskcolor="#d1d1d1"
     inkscape:document-units="mm"
     inkscape:zoom="1.9426985"
     inkscape:cx="526.58712"
     inkscape:cy="48.12893"
     inkscape:window-width="1920"
     inkscape:window-height="1009"
     inkscape:window-x="-8"
     inkscape:window-y="-8"
     inkscape:window-maximized="1"
     inkscape:current-layer="layer1" />
  <defs
     id="defs1">
    <linearGradient
       id="linearGradient2"
       inkscape:collect="always">
      <stop
         style="stop-color:#ff8756;stop-opacity:1;"
         offset="0"
         id="stop2" />
      <stop
         style="stop-color:#5668ff;stop-opacity:1;"
         offset="1"
         id="stop3" />
    </linearGradient>
    <linearGradient
       inkscape:collect="always"
       xlink:href="#linearGradient2"
       id="linearGradient3"
       x1="149.46303"
       y1="49.692608"
       x2="23.112841"
       y2="49.692608"
       gradientUnits="userSpaceOnUse"
       gradientTransform="translate(4.19071,-30.431907)" />
  </defs>
  <g
     inkscape:label="Layer 1"
     inkscape:groupmode="layer"
     id="layer1">
    <text
       xml:space="preserve"
       style="font-weight:600;font-size:50.8px;font-family:'Plus Jakarta Sans';-inkscape-font-specification:'Plus Jakarta Sans Semi-Bold';opacity:0.672566;fill:#56ff83;stroke-width:0.264583"
       x="34.284046"
       y="41.603111"
       id="text1"><tspan
         sodipodi:role="line"
         id="tspan1"
         style="stroke-width:0.264583"
         x="34.284046"
         y="41.603111" /></text>
    <path
       d="m 19.87867,26.964982 6.6548,-18.9230001 h 3.7084 L 36.896669,26.964982 H 33.69627 l -1.4478,-4.2418 h -7.6962 l -1.4732,4.2418 z m 5.5372,-6.9088 h 5.9182 l -3.3528,-9.906 h 0.8382 z m 13.436586,6.9088 V 7.7371819 h 2.8702 V 26.964982 Z m 6.22302,0 V 7.7371819 h 2.8702 V 26.964982 Z m 15.697221,0.3048 q -2.0574,0 -3.8354,-0.7366 -1.7526,-0.7366 -3.0988,-2.0574 -1.3208,-1.3208 -2.0828,-3.0988 -0.7366,-1.778 -0.7366,-3.8862 0,-2.1082 0.7366,-3.8862 0.762,-1.8034 2.0828,-3.0988 1.3208,-1.3208001 3.0988,-2.0320001 1.778,-0.7366 3.8354,-0.7366 2.0828,0 3.8354,0.7366 1.778,0.7112 3.0988,2.0320001 1.3462,1.3208 2.0828,3.0988 0.7366,1.778 0.7366,3.8862 0,2.1082 -0.762,3.8862 -0.7366,1.778 -2.0574,3.0988 -1.3208,1.3208 -3.0988,2.0574 -1.778,0.7366 -3.8354,0.7366 z m 0,-2.7432 q 1.4732,0 2.6924,-0.5334 1.2446,-0.5334 2.159,-1.4732 0.9144,-0.9652 1.4224,-2.2352 0.508,-1.2954 0.508,-2.794 0,-1.4986 -0.508,-2.7686 -0.508,-1.27 -1.4224,-2.2352 -0.9144,-0.9652 -2.159,-1.4986 -1.2192,-0.5334 -2.6924,-0.5334 -1.4732,0 -2.7178,0.5334 -1.2192,0.5334 -2.1336,1.4986 -0.9144,0.9652 -1.4224,2.2352 -0.4826,1.27 -0.4826,2.7686 0,1.4986 0.4826,2.794 0.508,1.27 1.4224,2.2352 0.9144,0.9398 2.159,1.4732 1.2446,0.5334 2.6924,0.5334 z m 12.827008,2.4384 v -13.7414 h 2.7432 v 2.6924 l -0.3302,-0.3556 q 0.508,-1.2954 1.6256,-1.9558 1.1176,-0.6858 2.5908,-0.6858 1.524,0 2.6924,0.6604 1.1684,0.6604 1.8288,1.8288 0.6604,1.1684 0.6604,2.6924 v 8.8646 h -2.8448 v -8.1026 q 0,-1.0414 -0.381,-1.7526 -0.381,-0.7366 -1.0922,-1.1176 -0.6858,-0.4064 -1.5748,-0.4064 -0.889,0 -1.6002,0.4064 -0.6858,0.381 -1.0668,1.1176 -0.381,0.7366 -0.381,1.7526 v 8.1026 z m 21.336007,0.3048 q -2.0574,0 -3.6576,-0.9398 -1.5748,-0.9652 -2.4638,-2.5908 -0.889,-1.651 -0.889,-3.683 0,-2.0828 0.889,-3.683 0.9144,-1.6002 2.4384,-2.5146 1.524,-0.9398 3.4544,-0.9398 1.5494,0 2.7686,0.5334 1.219197,0.5334 2.057391,1.4732 0.838197,0.9144 1.269997,2.1082 0.4572,1.1938 0.4572,2.54 0,0.3302 -0.0254,0.6858 -0.0254,0.3556 -0.1016,0.6604 H 90.185912 v -2.286 h 9.321791 l -1.371591,1.0414 q 0.254,-1.2446 -0.1778,-2.2098 -0.4064,-0.9906 -1.27,-1.5494 -0.8382,-0.5842 -1.9812,-0.5842 -1.143,0 -2.032,0.5842 -0.889,0.5588 -1.3716,1.6256 -0.4826,1.0414 -0.381,2.54 -0.127,1.397 0.381,2.4384 0.5334,1.0414 1.4732,1.6256 0.9652,0.5842 2.1844,0.5842 1.2446,0 2.1082,-0.5588 0.889,-0.5588 1.396997,-1.4478 l 2.336791,1.143 q -0.4064,0.9652 -1.269997,1.7526 -0.838194,0.762 -2.031991,1.2192 -1.1684,0.4318 -2.5654,0.4318 z m 12.750818,-0.3048 v -16.256 h -5.0292 V 8.0419819 h 12.954 v 2.6670001 h -4.953 v 16.256 z m 14.5542,0.3048 q -2.0574,0 -3.6576,-0.9398 -1.5748,-0.9652 -2.4638,-2.5908 -0.889,-1.651 -0.889,-3.683 0,-2.0828 0.889,-3.683 0.9144,-1.6002 2.4384,-2.5146 1.524,-0.9398 3.4544,-0.9398 1.5494,0 2.7686,0.5334 1.2192,0.5334 2.0574,1.4732 0.8382,0.9144 1.27,2.1082 0.4572,1.1938 0.4572,2.54 0,0.3302 -0.0254,0.6858 -0.0254,0.3556 -0.1016,0.6604 h -10.9474 v -2.286 h 9.3218 l -1.3716,1.0414 q 0.254,-1.2446 -0.1778,-2.2098 -0.4064,-0.9906 -1.27,-1.5494 -0.8382,-0.5842 -1.9812,-0.5842 -1.143,0 -2.032,0.5842 -0.889,0.5588 -1.3716,1.6256 -0.4826,1.0414 -0.381,2.54 -0.127,1.397 0.381,2.4384 0.5334,1.0414 1.4732,1.6256 0.9652,0.5842 2.1844,0.5842 1.2446,0 2.1082,-0.5588 0.889,-0.5588 1.397,-1.4478 l 2.3368,1.143 q -0.4064,0.9652 -1.27,1.7526 -0.8382,0.762 -2.032,1.2192 -1.1684,0.4318 -2.5654,0.4318 z m 15.64642,0 q -2.0574,0 -3.6576,-0.9398 -1.5748,-0.9652 -2.5146,-2.5908 -0.9144,-1.6256 -0.9144,-3.683 0,-2.032 0.9144,-3.6576 0.9144,-1.6256 2.5146,-2.54 1.6002,-0.9398 3.6576,-0.9398 1.397,0 2.6162,0.508 1.2192,0.4826 2.1082,1.3462 0.9144,0.8636 1.3462,2.0066 l -2.5146,1.1684 q -0.4318,-1.0668 -1.397,-1.7018 -0.9398,-0.6604 -2.159,-0.6604 -1.1684,0 -2.1082,0.5842 -0.9144,0.5588 -1.4478,1.6002 -0.5334,1.016 -0.5334,2.3114 0,1.2954 0.5334,2.3368 0.5334,1.016 1.4478,1.6002 0.9398,0.5842 2.1082,0.5842 1.2446,0 2.159,-0.635 0.9398,-0.6604 1.397,-1.7526 l 2.5146,1.1938 q -0.4064,1.0922 -1.3208,1.9812 -0.889,0.8636 -2.1082,1.3716 -1.2192,0.508 -2.6416,0.508 z m 8.86462,-0.3048 V 7.7371819 h 2.8702 v 8.1788001 l -0.4572,-0.3556 q 0.508,-1.2954 1.6256,-1.9558 1.1176,-0.6858 2.5908,-0.6858 1.524,0 2.6924,0.6604 1.1684,0.6604 1.8288,1.8288 0.6604,1.1684 0.6604,2.667 v 8.89 h -2.8448 v -8.1026 q 0,-1.0414 -0.4064,-1.7526 -0.381,-0.7366 -1.0668,-1.1176 -0.6858,-0.4064 -1.5748,-0.4064 -0.8636,0 -1.5748,0.4064 -0.6858,0.381 -1.0922,1.1176 -0.381,0.7366 -0.381,1.7526 v 8.1026 z"
       id="text2"
       style="font-weight:600;font-size:25.4px;font-family:'Plus Jakarta Sans';-inkscape-font-specification:'Plus Jakarta Sans Semi-Bold';fill:url(#linearGradient3);stroke-width:0.264583"
       aria-label="AllOneTech" />
    <circle
       style="opacity:0.672566;fill:#5656ff;fill-opacity:1;stroke-width:0.264583"
       id="path3"
       cx="175.03313"
       cy="12.519452"
       r="11.363812" />
    <circle
       style="opacity:0.672566;fill:#0078f1;fill-opacity:1;stroke-width:0.264583"
       id="path3-3"
       cx="173.23897"
       cy="22.817295"
       r="11.363812" />
    <circle
       style="opacity:0.672566;fill:#ff8656;fill-opacity:1;stroke-width:0.264583"
       id="path3-3-4"
       cx="182.99959"
       cy="18.562244"
       r="11.363812" />
  </g>
</svg>
