<?xml version="1.0" encoding="UTF-8" standalone="no"?>
<!-- Created with Inkscape (http://www.inkscape.org/) -->

<svg
   width="360mm"
   height="70mm"
   viewBox="0 0 360 70"
   version="1.1"
   id="svg1"
   inkscape:version="1.4 (86a8ad7, 2024-10-11)"
   sodipodi:docname="AllOneNext.svg"
   xmlns:inkscape="http://www.inkscape.org/namespaces/inkscape"
   xmlns:sodipodi="http://sodipodi.sourceforge.net/DTD/sodipodi-0.dtd"
   xmlns:xlink="http://www.w3.org/1999/xlink"
   xmlns="http://www.w3.org/2000/svg"
   xmlns:svg="http://www.w3.org/2000/svg">
  <sodipodi:namedview
     id="namedview1"
     pagecolor="#ffffff"
     bordercolor="#000000"
     borderopacity="0.25"
     inkscape:showpageshadow="2"
     inkscape:pageopacity="0.0"
     inkscape:pagecheckerboard="0"
     inkscape:deskcolor="#d1d1d1"
     inkscape:document-units="mm"
     inkscape:zoom="0.71891835"
     inkscape:cx="766.42918"
     inkscape:cy="288.62805"
     inkscape:window-width="1920"
     inkscape:window-height="1009"
     inkscape:window-x="-8"
     inkscape:window-y="-8"
     inkscape:window-maximized="1"
     inkscape:current-layer="layer1" />
  <defs
     id="defs1">
    <linearGradient
       id="linearGradient19"
       inkscape:collect="always">
      <stop
         style="stop-color:#083cf4;stop-opacity:1;"
         offset="0"
         id="stop19" />
      <stop
         style="stop-color:#00f8c7;stop-opacity:0.53642386;"
         offset="1"
         id="stop20" />
    </linearGradient>
    <linearGradient
       id="linearGradient17"
       inkscape:collect="always">
      <stop
         style="stop-color:#06237d;stop-opacity:1;"
         offset="0"
         id="stop17" />
      <stop
         style="stop-color:#1194f1;stop-opacity:1;"
         offset="1"
         id="stop18" />
    </linearGradient>
    <inkscape:path-effect
       effect="spiro"
       id="path-effect15"
       is_visible="true"
       lpeversion="1" />
    <linearGradient
       inkscape:collect="always"
       xlink:href="#linearGradient17"
       id="linearGradient18"
       x1="27.60223"
       y1="97.895912"
       x2="268.29367"
       y2="97.895912"
       gradientUnits="userSpaceOnUse"
       gradientTransform="translate(1.472119,-62.933085)" />
    <linearGradient
       inkscape:collect="always"
       xlink:href="#linearGradient19"
       id="linearGradient20"
       x1="306.57553"
       y1="80.077011"
       x2="336.05518"
       y2="119.4562"
       gradientUnits="userSpaceOnUse"
       gradientTransform="matrix(1.2431101,0,0,1.2431101,-71.975672,-88.619804)" />
  </defs>
  <g
     inkscape:label="Layer 1"
     inkscape:groupmode="layer"
     id="layer1">
    <path
       d="M 15.00059,50.668695 27.982874,13.753426 h 7.234402 L 48.19956,50.668695 h -6.243388 l -2.82439,-8.27496 H 24.117919 l -2.87394,8.27496 z m 10.802053,-13.47779 h 11.545314 l -6.540693,-19.32477 h 1.635173 z m 26.212295,13.47779 V 13.158818 h 5.599229 v 37.509877 z m 12.139965,0 V 13.158818 h 5.599229 v 37.509877 z m 30.622372,0.59461 q -4.013606,0 -7.482155,-1.43697 -3.418999,-1.43697 -6.045186,-4.0136 -2.576636,-2.57664 -4.063157,-6.04519 -1.436971,-3.46855 -1.436971,-7.581258 0,-4.112708 1.436971,-7.581257 1.486521,-3.5181 4.063157,-6.045186 2.576637,-2.576636 6.045186,-3.964056 3.468549,-1.43697 7.482155,-1.43697 4.063158,0 7.482155,1.43697 3.46855,1.38742 6.04519,3.964056 2.62619,2.576637 4.06316,6.045186 1.43697,3.468549 1.43697,7.581257 0,4.112708 -1.48653,7.581258 -1.43697,3.46855 -4.0136,6.04519 -2.57664,2.57663 -6.04519,4.0136 -3.468548,1.43697 -7.482155,1.43697 z m 0,-5.35147 q 2.873941,0 5.252375,-1.04057 2.42799,-1.04056 4.21181,-2.87394 1.78383,-1.88293 2.77484,-4.36046 0.99101,-2.527086 0.99101,-5.450578 0,-2.923491 -0.99101,-5.401026 -0.99101,-2.477535 -2.77484,-4.360462 -1.78382,-1.882927 -4.21181,-2.923491 -2.378434,-1.040565 -5.252375,-1.040565 -2.87394,0 -5.301925,1.040565 -2.378433,1.040564 -4.162258,2.923491 -1.783826,1.882927 -2.77484,4.360462 -0.941463,2.477535 -0.941463,5.401026 0,2.923492 0.941463,5.450578 0.991014,2.47753 2.77484,4.36046 1.783825,1.83338 4.211809,2.87394 2.427985,1.04057 5.252374,1.04057 z m 25.023115,4.75686 V 23.861769 h 5.35147 v 5.252375 l -0.64415,-0.69371 q 0.99101,-2.527086 3.17124,-3.815404 2.18023,-1.337869 5.05417,-1.337869 2.97304,0 5.25238,1.288318 2.27933,1.288318 3.56765,3.567651 1.28831,2.279332 1.28831,5.252374 v 17.293191 h -5.54967 v -15.80667 q 0,-2.031579 -0.74326,-3.418998 -0.74326,-1.436971 -2.13068,-2.180231 -1.33787,-0.792811 -3.07215,-0.792811 -1.73427,0 -3.12169,0.792811 -1.33787,0.74326 -2.08113,2.180231 -0.74326,1.43697 -0.74326,3.418998 v 15.80667 z m 41.62262,0.59461 q -4.01361,0 -7.1353,-1.83337 -3.07214,-1.88293 -4.80642,-5.05418 -1.73427,-3.22079 -1.73427,-7.18485 0,-4.063154 1.73427,-7.184849 1.78383,-3.121694 4.75687,-4.905519 2.97304,-1.833376 6.73889,-1.833376 3.0226,0 5.40103,1.040565 2.37843,1.040564 4.01361,2.87394 1.63517,1.783826 2.47753,4.112709 0.89191,2.328883 0.89191,4.95507 0,0.644159 -0.0495,1.33787 -0.0496,0.69371 -0.1982,1.28832 h -21.35635 v -4.459566 h 18.18511 l -2.67574,2.031579 q 0.49551,-2.427985 -0.34686,-4.310911 -0.79281,-1.932478 -2.47753,-3.022593 -1.63517,-1.139666 -3.86496,-1.139666 -2.22978,0 -3.96405,1.139666 -1.73428,1.090115 -2.67574,3.171245 -0.94146,2.031578 -0.74326,4.955066 -0.24775,2.72529 0.74326,4.75687 1.04056,2.03158 2.87394,3.17125 1.88293,1.13966 4.26136,1.13966 2.42798,0 4.11271,-1.09011 1.73427,-1.09012 2.72529,-2.82439 l 4.55866,2.22978 q -0.79281,1.88292 -2.47753,3.419 -1.63518,1.48652 -3.96406,2.37843 -2.27933,0.84236 -5.00462,0.84236 z m 18.3338,-0.59461 V 13.753426 h 4.70731 l 20.7122,28.590759 -2.22978,0.34685 V 13.753426 h 5.79743 v 36.915269 h -4.70732 l -20.56354,-28.788954 2.13068,-0.396405 v 29.185359 z m 48.6588,0.59461 q -4.01361,0 -7.1353,-1.83337 -3.07215,-1.88293 -4.80642,-5.05418 -1.73427,-3.22079 -1.73427,-7.18485 0,-4.063154 1.73427,-7.184849 1.78383,-3.121694 4.75687,-4.905519 2.97304,-1.833376 6.73889,-1.833376 3.0226,0 5.40103,1.040565 2.37843,1.040564 4.01361,2.87394 1.63517,1.783826 2.47753,4.112709 0.89191,2.328883 0.89191,4.95507 0,0.644159 -0.0496,1.33787 -0.0495,0.69371 -0.1982,1.28832 h -21.35635 v -4.459566 h 18.18511 l -2.67574,2.031579 q 0.4955,-2.427985 -0.34686,-4.310911 -0.79281,-1.932478 -2.47753,-3.022593 -1.63518,-1.139666 -3.86496,-1.139666 -2.22978,0 -3.96405,1.139666 -1.73428,1.090115 -2.67574,3.171245 -0.94146,2.031578 -0.74326,4.955066 -0.24775,2.72529 0.74326,4.75687 1.04056,2.03158 2.87394,3.17125 1.88293,1.13966 4.26136,1.13966 2.42798,0 4.11271,-1.09011 1.73427,-1.09012 2.72529,-2.82439 l 4.55866,2.22978 q -0.79281,1.88292 -2.47753,3.419 -1.63518,1.48652 -3.96406,2.37843 -2.27933,0.84236 -5.00462,0.84236 z m 14.61749,-0.59461 9.36508,-13.42824 -9.36508,-13.378686 h 6.59024 l 7.68036,11.198459 h -3.17124 l 7.68035,-11.198459 h 6.59025 l -9.41464,13.378686 9.36509,13.42824 h -6.59025 l -7.58125,-11.24801 h 3.07214 l -7.63081,11.24801 z m 40.78021,0.29731 q -4.21181,0 -6.54069,-2.37844 -2.32888,-2.37843 -2.32888,-6.68934 V 28.915941 h -4.70732 v -5.054172 h 0.74326 q 1.88293,0 2.92349,-1.090115 1.04057,-1.090115 1.04057,-2.973042 v -2.08113 h 5.59923 v 6.144287 h 6.09473 v 5.054172 h -6.09473 v 12.734534 q 0,1.38742 0.44595,2.37843 0.44596,0.94146 1.43697,1.48652 0.99102,0.49551 2.57664,0.49551 0.39641,0 0.89191,-0.0495 0.49551,-0.0495 0.94147,-0.0991 v 4.80641 q -0.69371,0.0991 -1.53608,0.19821 -0.84236,0.0991 -1.48652,0.0991 z"
       id="text1"
       style="font-weight:600;font-size:49.5507px;font-family:'Plus Jakarta Sans';-inkscape-font-specification:'Plus Jakarta Sans Semi-Bold';fill:url(#linearGradient18);stroke-width:0.516152"
       aria-label="AllOneNext" />
    <path
       style="font-weight:800;font-size:63.15px;font-family:'Plus Jakarta Sans';-inkscape-font-specification:'Plus Jakarta Sans Ultra-Bold';fill:url(#linearGradient20);stroke-width:6.38959"
       d="m 305.47143,57.780675 15.4086,-23.55495 -15.4086,-23.491801 h 11.2407 l 12.3774,18.818701 h -5.49405 l 12.31425,-18.818701 h 11.2407 l -15.34545,23.491801 15.34545,23.55495 h -11.2407 l -12.31425,-18.88185 5.49405,0.0632 -12.3774,18.8187 z"
       id="text16"
       aria-label="X" />
  </g>
</svg>
