<?xml version="1.0" encoding="UTF-8" standalone="no"?>
<!-- Created with Inkscape (http://www.inkscape.org/) -->

<svg
   width="900mm"
   height="1600mm"
   viewBox="0 0 900 1600"
   version="1.1"
   id="svg1"
   inkscape:version="1.3.2 (091e20e, 2023-11-25, custom)"
   sodipodi:docname="menuscreen.svg"
   xmlns:inkscape="http://www.inkscape.org/namespaces/inkscape"
   xmlns:sodipodi="http://sodipodi.sourceforge.net/DTD/sodipodi-0.dtd"
   xmlns:xlink="http://www.w3.org/1999/xlink"
   xmlns="http://www.w3.org/2000/svg"
   xmlns:svg="http://www.w3.org/2000/svg">
  <sodipodi:namedview
     id="namedview1"
     pagecolor="#ffffff"
     bordercolor="#000000"
     borderopacity="0.25"
     inkscape:showpageshadow="2"
     inkscape:pageopacity="0.0"
     inkscape:pagecheckerboard="0"
     inkscape:deskcolor="#d1d1d1"
     inkscape:document-units="mm"
     inkscape:zoom="0.15923997"
     inkscape:cx="1033.0321"
     inkscape:cy="1598.2168"
     inkscape:window-width="1536"
     inkscape:window-height="953"
     inkscape:window-x="-8"
     inkscape:window-y="-8"
     inkscape:window-maximized="1"
     inkscape:current-layer="layer1" />
  <defs
     id="defs1">
    <inkscape:path-effect
       effect="spiro"
       id="path-effect12"
       is_visible="true"
       lpeversion="1" />
    <inkscape:path-effect
       effect="spiro"
       id="path-effect2"
       is_visible="true"
       lpeversion="1" />
    <inkscape:path-effect
       effect="spiro"
       id="path-effect11"
       is_visible="true"
       lpeversion="1" />
    <inkscape:path-effect
       effect="spiro"
       id="path-effect10"
       is_visible="true"
       lpeversion="1" />
    <inkscape:path-effect
       effect="spiro"
       id="path-effect9"
       is_visible="true"
       lpeversion="1" />
    <inkscape:path-effect
       effect="spiro"
       id="path-effect8"
       is_visible="true"
       lpeversion="1" />
    <inkscape:path-effect
       effect="spiro"
       id="path-effect7"
       is_visible="true"
       lpeversion="1" />
    <inkscape:path-effect
       effect="spiro"
       id="path-effect5"
       is_visible="true"
       lpeversion="1" />
    <linearGradient
       id="linearGradient4"
       inkscape:collect="always">
      <stop
         style="stop-color:#ff802d;stop-opacity:1;"
         offset="0"
         id="stop4" />
      <stop
         style="stop-color:#8200ee;stop-opacity:1;"
         offset="1"
         id="stop5" />
    </linearGradient>
    <inkscape:path-effect
       effect="spiro"
       id="path-effect3"
       is_visible="true"
       lpeversion="1" />
    <linearGradient
       id="linearGradient2"
       inkscape:collect="always">
      <stop
         style="stop-color:#6e0dff;stop-opacity:1;"
         offset="0"
         id="stop2" />
      <stop
         style="stop-color:#ff9d52;stop-opacity:1;"
         offset="1"
         id="stop3" />
    </linearGradient>
    <inkscape:path-effect
       effect="spiro"
       id="path-effect1"
       is_visible="true"
       lpeversion="1" />
    <linearGradient
       inkscape:collect="always"
       xlink:href="#linearGradient2"
       id="linearGradient3"
       x1="9.7997656"
       y1="157.14957"
       x2="137.80606"
       y2="157.14957"
       gradientUnits="userSpaceOnUse" />
    <linearGradient
       inkscape:collect="always"
       xlink:href="#linearGradient2"
       id="linearGradient5"
       x1="313.87411"
       y1="221.41467"
       x2="512.9613"
       y2="221.41467"
       gradientUnits="userSpaceOnUse" />
    <linearGradient
       inkscape:collect="always"
       xlink:href="#linearGradient4"
       id="linearGradient11"
       x1="-20.836346"
       y1="141.22673"
       x2="536.47925"
       y2="141.22673"
       gradientUnits="userSpaceOnUse" />
    <linearGradient
       inkscape:collect="always"
       xlink:href="#linearGradient4"
       id="linearGradient13"
       x1="61.566917"
       y1="273.60489"
       x2="209.93629"
       y2="273.60489"
       gradientUnits="userSpaceOnUse" />
    <linearGradient
       inkscape:collect="always"
       xlink:href="#linearGradient2"
       id="linearGradient7"
       x1="-85.155823"
       y1="328.36407"
       x2="968.20312"
       y2="328.36407"
       gradientUnits="userSpaceOnUse" />
    <linearGradient
       inkscape:collect="always"
       xlink:href="#linearGradient2"
       id="linearGradient14"
       x1="-52.29826"
       y1="984.85748"
       x2="990.94885"
       y2="984.85748"
       gradientUnits="userSpaceOnUse" />
  </defs>
  <g
     inkscape:label="Layer 1"
     inkscape:groupmode="layer"
     id="layer1">
    <path
       style="fill:none;stroke:url(#linearGradient14);stroke-width:66.9999;stroke-dasharray:none"
       d="m -18.798162,1360.517 c -0.06858,47.1417 25.0319651,93.5889 64.504531,119.3621 39.472565,25.7733 92.092811,30.0732 135.225931,11.0501 38.91058,-17.1608 67.87589,-50.502 95.93821,-82.4557 28.06231,-31.9536 58.13855,-64.6406 97.91784,-79.6784 30.73263,-11.6179 64.94267,-11.5578 97.1346,-4.989 32.19193,6.5688 62.75121,19.3499 92.74022,32.7711 29.98901,13.4212 59.77393,27.6062 91.18958,37.2252 31.41564,9.6191 64.86556,14.561 97.24859,9.0104 31.92154,-5.4715 61.88253,-21.2128 85.07392,-43.8199 23.1914,-22.6071 39.61076,-51.9244 47.56844,-83.3186 7.95769,-31.3943 7.52413,-64.7726 -0.44717,-96.1634 -7.97131,-31.3907 -23.39759,-60.7688 -44.07881,-85.6929 C 802.52895,1047.1921 747.55426,1017.6462 693.86063,989.57863 640.16701,961.51103 584.94658,932.71939 545.1467,887.03826 498.59761,833.61059 477.58733,759.22649 487.80183,689.10519 c 10.2145,-70.12131 51.06145,-134.9392 109.0398,-175.68039 40.02597,-28.12611 88.10961,-45.08115 137.00874,-46.50651 48.89913,-1.42537 98.40386,12.96123 137.91437,41.80695 49.24983,35.95617 81.49154,94.25626 85.76662,155.08483"
       id="path7"
       inkscape:path-effect="#path-effect12"
       inkscape:original-d="m -18.798162,1360.517 c 65.793567,44.6456 133.936902,86.9414 199.730462,130.4122 65.79357,43.4707 127.67084,-107.6978 193.85605,-162.1341 66.1852,-54.4364 252.60029,49.3451 378.31299,74.0177 125.71272,24.6726 58.35263,-205.9965 88.11638,-308.9948 C 870.98149,990.81978 645.40354,955.96484 545.1467,887.03826 444.88983,818.11166 579.21836,637.96261 596.84163,513.4248 c 17.62328,-124.53784 183.28208,-2.7414 274.92311,-4.69956 91.64103,-1.95813 56.78612,102.99827 85.76662,155.08483"
       transform="matrix(1.0286679,0,0,1.0286679,-28.408412,-9.0993091)" />
    <path
       style="fill:none;fill-opacity:1;stroke:url(#linearGradient3);stroke-width:18.9925;stroke-dasharray:none"
       d="M 13.511179,10.573966 C 20.819128,4.9330259 29.945923,1.6877178 39.174635,1.4485479 48.403347,1.209378 57.685988,3.9775899 65.276311,9.2324286 72.866633,14.487267 78.725169,22.201408 81.749813,30.923671 c 3.024643,8.722262 3.199667,18.407291 0.492145,27.233142 -2.266902,7.389538 -6.428294,14.022211 -10.003667,20.875008 -3.575373,6.852797 -6.651913,14.281644 -6.444725,22.008299 0.23669,8.82686 4.808489,17.09777 10.906874,23.48363 6.098384,6.38586 13.665251,11.14694 21.188451,15.76981 7.523199,4.62287 15.161189,9.2321 21.489749,15.38993 6.32856,6.15782 11.3252,14.1133 12.20849,22.89904 0.86788,8.63246 -2.3361,17.32041 -7.4158,24.35385 -5.07971,7.03343 -11.92637,12.59467 -19.03057,17.57492 -7.104197,4.98025 -14.5584,9.47509 -21.362523,14.85807 -6.804123,5.38298 -13.021997,11.77524 -16.809786,19.5807 -3.708737,7.64256 -4.915079,16.47482 -3.391644,24.83201 1.523434,8.35719 5.768691,16.19568 11.935593,22.03801 6.166902,5.84232 14.22325,9.65799 22.650528,10.72779 8.427282,1.0698 17.181482,-0.61185 24.612562,-4.72798"
       id="path1"
       inkscape:path-effect="#path-effect1"
       inkscape:original-d="m 13.511179,10.573966 c 22.910259,16.644205 45.820519,32.113525 68.730779,47.582847 22.910262,15.469319 -10.76978,28.588869 -16.448392,42.883307 -5.678612,14.29443 43.666564,51.69494 65.793564,77.54241 22.127,25.84748 -43.079119,50.91169 -64.618679,76.36754 -21.539559,25.45585 37.204699,35.24654 55.807039,52.86983"
       transform="matrix(3.3630183,0,0,3.5320932,564.56321,-147.25366)" />
    <path
       style="fill:none;stroke:url(#linearGradient5);stroke-width:19.423;stroke-dasharray:none"
       d="m 327.20549,308.40733 c -7.03397,-21.84461 -3.57702,-46.8157 9.12693,-65.92783 12.70395,-19.11213 34.38974,-31.96639 57.2541,-33.9374 8.00317,-0.68991 16.06595,-0.11884 24.08512,-0.58744 20.3484,-1.18905 40.23029,-9.29522 55.60924,-22.67279 15.37894,-13.37757 26.16107,-31.94489 30.15738,-51.93241"
       id="path3"
       inkscape:path-effect="#path-effect3"
       inkscape:original-d="m 327.20549,308.40733 c 21.34376,-33.2884 43.86239,-66.57681 66.38103,-99.86523 22.51863,-33.28841 16.05676,-0.39162 24.08512,-0.58744 8.02839,-0.19581 57.17776,-49.7368 85.76662,-74.6052"
       transform="matrix(0,3.0094064,-2.7266473,0,730.69854,184.48336)" />
    <path
       style="fill:none;stroke:url(#linearGradient7);stroke-width:67;stroke-dasharray:none"
       d="m -51.694945,263.17426 c 2.445038,50.54852 20.715449,100.21797 51.60872403,140.30209 30.89327497,40.08412 74.27088697,70.40318 122.52943097,85.64272 48.25855,15.23954 101.18165,15.33124 149.49272,0.25902 48.31106,-15.07223 91.79348,-45.24078 122.82547,-85.21761 31.49627,-40.57494 49.81741,-89.94762 79.89218,-131.58713 53.51719,-74.09631 145.00705,-119.13972 236.36726,-116.37123 91.36021,2.76849 179.9548,53.269 228.88723,130.46984"
       id="path2"
       inkscape:path-effect="#path-effect2"
       inkscape:original-d="M -51.694945,263.17426 C 98.690349,307.03665 244.3761,355.59857 394.7614,404.16048 c 150.38527,48.56192 56.39448,-86.15825 79.89218,-131.58713 23.4977,-45.4289 308.60314,7.83257 465.25449,14.09861"
       transform="matrix(1.0546531,0,0,1.0546531,-28.24275,-33.892475)" />
    <path
       style="fill:none;stroke:url(#linearGradient11);stroke-width:19.423;stroke-dasharray:none"
       d="m -9.9865234,166.83368 c -1.8286966,7.49546 -1.4308106,15.51965 1.1304292,22.79743 2.5612399,7.27778 7.2764758,13.78258 13.3964132,18.48071 6.119937,4.69814 13.622215,7.57245 21.314652,8.16617 7.692438,0.59373 15.546927,-1.0953 22.315319,-4.79867 10.435384,-5.70979 17.722486,-15.65041 25.645265,-24.52332 3.961389,-4.43646 8.187225,-8.69472 13.094473,-12.05532 4.907248,-3.36061 10.553325,-5.80376 16.479862,-6.30467 7.92233,-0.66959 15.83383,2.18137 22.47227,6.55662 6.63843,4.37525 12.17098,10.20831 17.49702,16.11127 5.32604,5.90296 10.54672,11.96589 16.74044,16.95081 6.19373,4.98492 13.51383,8.88859 21.42013,9.72648 5.88129,0.62328 11.88759,-0.48664 17.32143,-2.82146 5.43384,-2.33483 10.30915,-5.86666 14.50668,-10.03305 8.39506,-8.33277 14.00797,-19.01455 19.09039,-29.69543 5.08242,-10.68087 9.82825,-21.64834 16.90564,-31.12581 3.5387,-4.73874 7.65645,-9.07991 12.44443,-12.55169 4.78798,-3.47178 10.26401,-6.06007 16.07201,-7.17593 9.30543,-1.78781 19.02004,0.27829 27.68891,4.10426 8.66886,3.82597 16.46699,9.34023 24.2192,14.78913 7.7522,5.44891 15.59588,10.91025 24.31883,14.61126 8.72294,3.70101 18.50019,5.55869 27.7504,3.50423 8.85813,-1.96738 16.67553,-7.41338 22.71419,-14.18624 6.03867,-6.77285 10.44255,-14.83882 14.25881,-23.07126 3.81627,-8.23245 7.10179,-16.71214 11.21136,-24.802159 4.10958,-8.090019 9.11451,-15.86085 15.84687,-21.944626 12.09978,-10.9341 29.61726,-15.551047 45.53447,-12.001166 15.9172,3.549881 29.81288,15.172643 36.12004,30.211887"
       id="path8"
       inkscape:path-effect="#path-effect9"
       inkscape:original-d="M -9.9865234,166.83368 C 9.0074524,181.12812 28.588872,196.01 48.17029,211.47932 c 19.581418,15.46932 36.61725,-28.19725 55.2196,-42.88331 18.60235,-14.68606 52.28238,32.70097 78.12986,49.34518 25.84747,16.6442 64.03124,-61.87729 96.34058,-93.40337 32.30933,-31.526082 69.51403,24.28096 103.97734,37.00888 34.46327,12.72792 42.68747,-56.00286 64.03123,-84.004285 21.34375,-28.001427 54.43635,12.140481 81.65451,18.210721"
       transform="matrix(0,3.3701328,-3.3701328,0,974.14327,-27.009765)" />
    <path
       style="fill:none;stroke:url(#linearGradient13);stroke-width:19.423;stroke-dasharray:none"
       d="m 71.08055,301.94546 c 2.859626,-13.94863 10.405896,-26.89376 21.13466,-36.25513 10.72876,-9.36137 24.57702,-15.08401 38.78448,-16.02725 16.34793,-1.08535 33.03684,4.22986 45.74604,14.56955 12.7092,10.33969 21.30872,25.59811 23.57218,41.82493"
       id="path11"
       inkscape:path-effect="#path-effect11"
       inkscape:original-d="m 71.08055,301.94546 c 19.777231,-17.62326 39.55446,-34.65909 59.91914,-52.28238 20.36467,-17.62327 46.40796,37.40052 69.31822,56.39448"
       transform="matrix(0,3.3701328,-3.3701328,0,902.87208,378.84092)" />
  </g>
</svg>
