<?xml version="1.0" encoding="UTF-8" standalone="no"?>
<!-- Created with Inkscape (http://www.inkscape.org/) -->

<svg
   width="809mm"
   height="497mm"
   viewBox="0 0 809 497"
   version="1.1"
   id="svg1"
   inkscape:version="1.3.2 (091e20e, 2023-11-25, custom)"
   sodipodi:docname="milestone1.svg"
   xmlns:inkscape="http://www.inkscape.org/namespaces/inkscape"
   xmlns:sodipodi="http://sodipodi.sourceforge.net/DTD/sodipodi-0.dtd"
   xmlns:xlink="http://www.w3.org/1999/xlink"
   xmlns="http://www.w3.org/2000/svg"
   xmlns:svg="http://www.w3.org/2000/svg">
  <sodipodi:namedview
     id="namedview1"
     pagecolor="#ffffff"
     bordercolor="#000000"
     borderopacity="0.25"
     inkscape:showpageshadow="2"
     inkscape:pageopacity="0.0"
     inkscape:pagecheckerboard="0"
     inkscape:deskcolor="#d1d1d1"
     inkscape:document-units="mm"
     inkscape:zoom="0.15923997"
     inkscape:cx="339.11084"
     inkscape:cy="1372.1429"
     inkscape:window-width="1536"
     inkscape:window-height="953"
     inkscape:window-x="-8"
     inkscape:window-y="-8"
     inkscape:window-maximized="1"
     inkscape:current-layer="layer1" />
  <defs
     id="defs1">
    <linearGradient
       id="linearGradient5"
       inkscape:collect="always">
      <stop
         style="stop-color:#00d6c5;stop-opacity:1;"
         offset="0"
         id="stop5" />
      <stop
         style="stop-color:#4cbddf;stop-opacity:1;"
         offset="1"
         id="stop6" />
    </linearGradient>
    <linearGradient
       inkscape:collect="always"
       xlink:href="#linearGradient5"
       id="linearGradient6"
       x1="-14.098621"
       y1="16.448391"
       x2="751.92645"
       y2="444.10657"
       gradientUnits="userSpaceOnUse"
       gradientTransform="translate(-171.13846,3.3230784)" />
  </defs>
  <g
     inkscape:label="Layer 1"
     inkscape:groupmode="layer"
     id="layer1">
    <rect
       style="opacity:0.989418;fill:url(#linearGradient6);fill-opacity:1;stroke:none;stroke-width:0;stroke-linecap:square;stroke-linejoin:bevel;stroke-dasharray:none;paint-order:stroke markers fill"
       id="rect5"
       width="1149.0376"
       height="574.5188"
       x="-225.18318"
       y="-23.699293"
       rx="1.578575"
       ry="1.3019428" />
    <path
       style="font-weight:600;font-size:64.3591px;font-family:'Plus Jakarta Sans';-inkscape-font-specification:'Plus Jakarta Sans Semi-Bold';opacity:0.989418;stroke-width:0;stroke-linecap:square;stroke-linejoin:bevel;paint-order:stroke markers fill"
       d="m 229.88351,248.02068 v -47.94753 h 7.0795 l 18.02055,24.97133 h -3.53975 l 17.69875,-24.97133 h 7.0795 v 47.94753 h -7.53002 v -39.00162 l 2.83181,0.77231 -18.08491,24.71389 h -0.77231 l -17.69875,-24.71389 2.51,-0.77231 v 39.00162 z m 55.54194,0 V 213.2024 h 7.27257 v 34.81828 z m 0,-39.58085 v -8.36668 h 7.27257 v 8.36668 z m 15.76803,39.58085 v -48.71984 h 7.27258 v 48.71984 z m 32.11525,0.7723 q -5.21309,0 -9.26771,-2.38128 -3.99027,-2.44565 -6.24284,-6.56463 -2.25257,-4.18334 -2.25257,-9.33207 0,-5.27745 2.25257,-9.33207 2.31693,-4.05462 6.17848,-6.37155 3.86154,-2.38129 8.75283,-2.38129 3.92591,0 7.01515,1.35154 3.08923,1.35155 5.21308,3.73283 2.12385,2.31693 3.21796,5.34181 1.15846,3.02488 1.15846,6.43591 0,0.83667 -0.0644,1.73769 -0.0644,0.90103 -0.25743,1.67334 h -27.73878 v -5.79232 h 23.61979 l -3.47539,2.63872 q 0.64359,-3.15359 -0.45051,-5.59924 -1.02975,-2.51 -3.21796,-3.9259 -2.12385,-1.48026 -5.02001,-1.48026 -2.89616,0 -5.14872,1.48026 -2.25257,1.4159 -3.4754,4.11898 -1.22282,2.63872 -0.96538,6.43591 -0.3218,3.53975 0.96538,6.17847 1.35155,2.63873 3.73283,4.11899 2.44565,1.48025 5.53488,1.48025 3.1536,0 5.34181,-1.4159 2.25257,-1.4159 3.53975,-3.66846 l 5.92104,2.89616 q -1.02975,2.44564 -3.21796,4.44077 -2.12385,1.93078 -5.14872,3.08924 -2.96052,1.0941 -6.50027,1.0941 z m 35.97679,0 q -5.3418,0 -9.39643,-2.63872 -3.99026,-2.63872 -5.59924,-7.0795 l 5.59924,-2.63872 q 1.4159,2.96052 3.86155,4.69821 2.51,1.7377 5.53488,1.7377 2.57437,0 4.18334,-1.15847 1.60898,-1.15846 1.60898,-3.15359 0,-1.28718 -0.70795,-2.05949 -0.70795,-0.83667 -1.80205,-1.35154 -1.02975,-0.51488 -2.12386,-0.77231 l -5.47052,-1.54462 q -4.50514,-1.28718 -6.7577,-3.86155 -2.18821,-2.63872 -2.18821,-6.11411 0,-3.1536 1.60897,-5.47053 1.60898,-2.38128 4.44078,-3.66846 2.8318,-1.28719 6.37155,-1.28719 4.76258,0 8.4954,2.38129 3.73283,2.31693 5.27745,6.50027 l -5.59924,2.63872 q -1.02975,-2.51 -3.28232,-3.99026 -2.18821,-1.48026 -4.95565,-1.48026 -2.38128,0 -3.79718,1.15846 -1.4159,1.09411 -1.4159,2.89616 0,1.22282 0.64359,2.05949 0.64359,0.77231 1.67333,1.28719 1.02975,0.45051 2.12385,0.7723 l 5.66361,1.67334 q 4.31206,1.22282 6.62898,3.86155 2.31693,2.57436 2.31693,6.17847 0,3.08924 -1.67334,5.47052 -1.60897,2.31693 -4.50513,3.66847 -2.89616,1.28718 -6.75771,1.28718 z m 35.14001,-0.38615 q -5.47053,0 -8.4954,-3.08924 -3.02488,-3.08923 -3.02488,-8.68848 v -16.86208 h -6.11412 v -6.56463 h 0.96539 q 2.44565,0 3.79719,-1.4159 1.35154,-1.4159 1.35154,-3.86154 v -2.70309 h 7.27258 v 7.98053 h 7.91617 v 6.56463 h -7.91617 v 16.54029 q 0,1.80205 0.57923,3.08924 0.57923,1.22282 1.86641,1.93077 1.28719,0.64359 3.34668,0.64359 0.51487,0 1.15846,-0.0644 0.64359,-0.0644 1.22282,-0.12872 v 6.24284 q -0.90102,0.12871 -1.99513,0.25743 -1.0941,0.12872 -1.93077,0.12872 z m 27.15957,0.38615 q -5.02001,0 -9.20335,-2.38128 -4.11899,-2.38129 -6.56463,-6.50027 -2.44565,-4.11898 -2.44565,-9.33207 0,-5.27745 2.44565,-9.33207 2.44564,-4.11898 6.56463,-6.43591 4.11898,-2.38129 9.20335,-2.38129 5.14873,0 9.20335,2.38129 4.11898,2.31693 6.50027,6.43591 2.44564,4.05462 2.44564,9.33207 0,5.27745 -2.44564,9.39643 -2.44565,4.11898 -6.56463,6.50027 -4.11898,2.31692 -9.13899,2.31692 z m 0,-6.7577 q 3.08924,0 5.47052,-1.48026 2.38129,-1.48026 3.73283,-4.05462 1.4159,-2.63873 1.4159,-5.92104 0,-3.28231 -1.4159,-5.85668 -1.35154,-2.57436 -3.73283,-4.05462 -2.38128,-1.48026 -5.47052,-1.48026 -3.02488,0 -5.47052,1.48026 -2.38129,1.48026 -3.79719,4.05462 -1.35154,2.57437 -1.35154,5.85668 0,3.28231 1.35154,5.92104 1.4159,2.57436 3.79719,4.05462 2.44564,1.48026 5.47052,1.48026 z m 25.22876,5.9854 V 213.2024 h 6.95079 v 6.82207 l -0.83667,-0.90103 q 1.28718,-3.28231 4.11898,-4.95565 2.8318,-1.7377 6.56463,-1.7377 3.86154,0 6.82206,1.67334 2.96052,1.67334 4.63386,4.63386 1.67333,2.96051 1.67333,6.82206 v 22.46133 h -7.20821 v -20.53056 q 0,-2.63872 -0.96539,-4.44078 -0.96539,-1.86641 -2.76744,-2.8318 -1.7377,-1.02974 -3.99027,-1.02974 -2.25257,0 -4.05462,1.02974 -1.7377,0.96539 -2.70308,2.8318 -0.96539,1.86642 -0.96539,4.44078 v 20.53056 z m 54.06169,0.7723 q -5.21309,0 -9.26771,-2.38128 -3.99026,-2.44565 -6.24283,-6.56463 -2.25257,-4.18334 -2.25257,-9.33207 0,-5.27745 2.25257,-9.33207 2.31693,-4.05462 6.17847,-6.37155 3.86155,-2.38129 8.75284,-2.38129 3.9259,0 7.01514,1.35154 3.08924,1.35155 5.21309,3.73283 2.12385,2.31693 3.21795,5.34181 1.15847,3.02488 1.15847,6.43591 0,0.83667 -0.0644,1.73769 -0.0644,0.90103 -0.25744,1.67334 H 498.8404 v -5.79232 h 23.61979 l -3.47539,2.63872 q 0.64359,-3.15359 -0.45052,-5.59924 -1.02974,-2.51 -3.21795,-3.9259 -2.12385,-1.48026 -5.02001,-1.48026 -2.89616,0 -5.14873,1.48026 -2.25257,1.4159 -3.47539,4.11898 -1.22282,2.63872 -0.96539,6.43591 -0.32179,3.53975 0.96539,6.17847 1.35154,2.63873 3.73283,4.11899 2.44564,1.48025 5.53488,1.48025 3.1536,0 5.34181,-1.4159 2.25256,-1.4159 3.53975,-3.66846 l 5.92103,2.89616 q -1.02974,2.44564 -3.21795,4.44077 -2.12385,1.93078 -5.14873,3.08924 -2.96052,1.0941 -6.50027,1.0941 z m 41.44726,-0.7723 v -41.51162 h -9.20335 v -6.43591 h 16.73336 v 47.94753 z"
       id="text1"
       aria-label="Milestone 1" />
    <g
       id="text2"
       style="font-weight:600;font-size:25.4px;font-family:'Plus Jakarta Sans';-inkscape-font-specification:'Plus Jakarta Sans Semi-Bold';opacity:0.989418;stroke-width:0;stroke-linecap:square;stroke-linejoin:bevel;paint-order:stroke markers fill"
       inkscape:transform-center-x="4.6995405"
       inkscape:transform-center-y="-116.90107"
       aria-label="Shh... &#10;Keep it to us!&#10;&#10;Not for release!">
      <path
         d="m 292.57586,358.12353 q -1.778,0 -3.302,-0.6604 -1.524,-0.6858 -2.5908,-1.8542 -1.0668,-1.1684 -1.5748,-2.6924 l 2.54,-1.0668 q 0.6858,1.7526 2.0066,2.6924 1.3208,0.9398 3.048,0.9398 1.016,0 1.778,-0.3048 0.762,-0.3302 1.1684,-0.9144 0.4318,-0.5842 0.4318,-1.3462 0,-1.0414 -0.5842,-1.651 -0.5842,-0.6096 -1.7272,-0.9652 l -3.556,-1.1176 q -2.1336,-0.6604 -3.2512,-2.0066 -1.1176,-1.3716 -1.1176,-3.2004 0,-1.6002 0.7874,-2.794 0.7874,-1.2192 2.159,-1.905 1.397,-0.6858 3.175,-0.6858 1.7018,0 3.0988,0.6096 1.397,0.5842 2.3876,1.6256 1.016,1.0414 1.4732,2.413 l -2.4892,1.0922 q -0.5588,-1.4986 -1.7526,-2.3114 -1.1684,-0.8128 -2.7178,-0.8128 -0.9398,0 -1.651,0.3302 -0.7112,0.3048 -1.1176,0.9144 -0.381,0.5842 -0.381,1.3716 0,0.9144 0.5842,1.6256 0.5842,0.7112 1.778,1.0668 l 3.302,1.0414 q 2.2606,0.6858 3.4036,1.9812 1.143,1.27 1.143,3.175 0,1.5748 -0.8382,2.794 -0.8128,1.2192 -2.2606,1.9304 -1.4478,0.6858 -3.3528,0.6858 z m 9.52498,-0.3048 v -19.2278 h 2.8702 v 8.1788 l -0.4572,-0.3556 q 0.508,-1.2954 1.6256,-1.9558 1.1176,-0.6858 2.5908,-0.6858 1.524,0 2.6924,0.6604 1.1684,0.6604 1.8288,1.8288 0.6604,1.1684 0.6604,2.667 v 8.89 h -2.8448 v -8.1026 q 0,-1.0414 -0.4064,-1.7526 -0.381,-0.7366 -1.0668,-1.1176 -0.6858,-0.4064 -1.5748,-0.4064 -0.8636,0 -1.5748,0.4064 -0.6858,0.381 -1.0922,1.1176 -0.381,0.7366 -0.381,1.7526 v 8.1026 z m 14.88442,0 v -19.2278 h 2.87019 v 8.1788 l -0.4572,-0.3556 q 0.508,-1.2954 1.6256,-1.9558 1.1176,-0.6858 2.5908,-0.6858 1.524,0 2.6924,0.6604 1.1684,0.6604 1.8288,1.8288 0.6604,1.1684 0.6604,2.667 v 8.89 h -2.8448 v -8.1026 q 0,-1.0414 -0.4064,-1.7526 -0.381,-0.7366 -1.0668,-1.1176 -0.6858,-0.4064 -1.5748,-0.4064 -0.8636,0 -1.5748,0.4064 -0.6858,0.381 -1.0922,1.1176 -0.381,0.7366 -0.381,1.7526 v 8.1026 z m 16.15441,0 v -3.302 h 2.921 v 3.302 z m 8.8138,0 v -3.302 h 2.921 v 3.302 z m 8.8138,0 v -3.302 h 2.921 v 3.302 z"
         id="path6" />
      <path
         d="m 285.94646,389.56873 v -18.923 h 2.9972 v 10.2616 l -0.7874,-0.3048 8.5598,-9.9568 h 3.7338 l -7.5692,8.8646 0.1524,-2.1336 7.7216,12.192 h -3.5306 l -5.5372,-8.6614 -2.7432,3.2004 v 5.461 z m 22.70758,0.3048 q -2.0574,0 -3.6576,-0.9398 -1.5748,-0.9652 -2.4638,-2.5908 -0.889,-1.651 -0.889,-3.683 0,-2.0828 0.889,-3.683 0.9144,-1.6002 2.4384,-2.5146 1.524,-0.9398 3.4544,-0.9398 1.5494,0 2.7686,0.5334 1.2192,0.5334 2.0574,1.4732 0.8382,0.9144 1.27,2.1082 0.4572,1.1938 0.4572,2.54 0,0.3302 -0.0254,0.6858 -0.0254,0.3556 -0.1016,0.6604 h -10.9474 v -2.286 h 9.3218 l -1.3716,1.0414 q 0.254,-1.2446 -0.1778,-2.2098 -0.4064,-0.9906 -1.27,-1.5494 -0.8382,-0.5842 -1.9812,-0.5842 -1.143,0 -2.032,0.5842 -0.889,0.5588 -1.3716,1.6256 -0.4826,1.0414 -0.381,2.54 -0.127,1.397 0.381,2.4384 0.5334,1.0414 1.4732,1.6256 0.9652,0.5842 2.1844,0.5842 1.2446,0 2.1082,-0.5588 0.889,-0.5588 1.397,-1.4478 l 2.3368,1.143 q -0.4064,0.9652 -1.27,1.7526 -0.8382,0.762 -2.032,1.2192 -1.1684,0.4318 -2.5654,0.4318 z m 15.57022,0 q -2.0574,0 -3.6576,-0.9398 -1.5748,-0.9652 -2.4638,-2.5908 -0.889,-1.651 -0.889,-3.683 0,-2.0828 0.889,-3.683 0.9144,-1.6002 2.4384,-2.5146 1.524,-0.9398 3.4544,-0.9398 1.5494,0 2.7686,0.5334 1.2192,0.5334 2.0574,1.4732 0.8382,0.9144 1.27,2.1082 0.4572,1.1938 0.4572,2.54 0,0.3302 -0.0254,0.6858 -0.0254,0.3556 -0.1016,0.6604 h -10.9474 v -2.286 h 9.3218 l -1.3716,1.0414 q 0.254,-1.2446 -0.1778,-2.2098 -0.4064,-0.9906 -1.27,-1.5494 -0.8382,-0.5842 -1.9812,-0.5842 -1.143,0 -2.032,0.5842 -0.889,0.5588 -1.3716,1.6256 -0.4826,1.0414 -0.381,2.54 -0.127,1.397 0.381,2.4384 0.5334,1.0414 1.4732,1.6256 0.9652,0.5842 2.1844,0.5842 1.2446,0 2.1082,-0.5588 0.889,-0.5588 1.397,-1.4478 l 2.3368,1.143 q -0.4064,0.9652 -1.27,1.7526 -0.8382,0.762 -2.032,1.2192 -1.1684,0.4318 -2.5654,0.4318 z m 9.11862,4.7752 v -18.8214 h 2.7432 v 2.8448 l -0.3302,-0.6604 q 0.762,-1.1684 2.032,-1.8288 1.27,-0.6604 2.8956,-0.6604 1.9558,0 3.5052,0.9398 1.5748,0.9398 2.4638,2.5654 0.9144,1.6256 0.9144,3.6576 0,2.032 -0.9144,3.6576 -0.889,1.6256 -2.4384,2.5908 -1.5494,0.9398 -3.5306,0.9398 -1.6002,0 -2.921,-0.6604 -1.2954,-0.6604 -2.0066,-1.905 l 0.4572,-0.5334 v 7.874 z m 7.0612,-7.4422 q 1.2192,0 2.159,-0.5842 0.9398,-0.5842 1.4732,-1.6002 0.5588,-1.0414 0.5588,-2.3368 0,-1.2954 -0.5588,-2.3114 -0.5334,-1.016 -1.4732,-1.6002 -0.9398,-0.5842 -2.159,-0.5842 -1.1938,0 -2.159,0.5842 -0.9398,0.5842 -1.4986,1.6002 -0.5334,1.016 -0.5334,2.3114 0,1.2954 0.5334,2.3368 0.5588,1.016 1.4986,1.6002 0.9652,0.5842 2.159,0.5842 z m 14.40178,2.3622 v -13.7414 h 2.8702 v 13.7414 z m 0,-15.621 v -3.302 h 2.8702 v 3.302 z m 12.16663,15.7734 q -2.159,0 -3.3528,-1.2192 -1.1938,-1.2192 -1.1938,-3.429 v -6.6548 h -2.413 v -2.5908 h 0.381 q 0.9652,0 1.4986,-0.5588 0.5334,-0.5588 0.5334,-1.524 v -1.0668 h 2.8702 v 3.1496 h 3.1242 v 2.5908 h -3.1242 v 6.5278 q 0,0.7112 0.2286,1.2192 0.2286,0.4826 0.7366,0.762 0.508,0.254 1.3208,0.254 0.2032,0 0.4572,-0.0254 0.254,-0.0254 0.4826,-0.0508 v 2.4638 q -0.3556,0.0508 -0.7874,0.1016 -0.4318,0.0508 -0.762,0.0508 z m 14.73199,0 q -2.159,0 -3.3528,-1.2192 -1.1938,-1.2192 -1.1938,-3.429 v -6.6548 h -2.413 v -2.5908 h 0.381 q 0.9652,0 1.4986,-0.5588 0.5334,-0.5588 0.5334,-1.524 v -1.0668 h 2.8702 v 3.1496 h 3.1242 v 2.5908 h -3.1242 v 6.5278 q 0,0.7112 0.2286,1.2192 0.2286,0.4826 0.7366,0.762 0.508,0.254 1.3208,0.254 0.2032,0 0.4572,-0.0254 0.254,-0.0254 0.4826,-0.0508 v 2.4638 q -0.3556,0.0508 -0.7874,0.1016 -0.4318,0.0508 -0.762,0.0508 z m 10.71881,0.1524 q -1.9812,0 -3.6322,-0.9398 -1.6256,-0.9398 -2.5908,-2.5654 -0.9652,-1.6256 -0.9652,-3.683 0,-2.0828 0.9652,-3.683 0.9652,-1.6256 2.5908,-2.54 1.6256,-0.9398 3.6322,-0.9398 2.032,0 3.6322,0.9398 1.6256,0.9144 2.5654,2.54 0.9652,1.6002 0.9652,3.683 0,2.0828 -0.9652,3.7084 -0.9652,1.6256 -2.5908,2.5654 -1.6256,0.9144 -3.6068,0.9144 z m 0,-2.667 q 1.2192,0 2.159,-0.5842 0.9398,-0.5842 1.4732,-1.6002 0.5588,-1.0414 0.5588,-2.3368 0,-1.2954 -0.5588,-2.3114 -0.5334,-1.016 -1.4732,-1.6002 -0.9398,-0.5842 -2.159,-0.5842 -1.1938,0 -2.159,0.5842 -0.9398,0.5842 -1.4986,1.6002 -0.5334,1.016 -0.5334,2.3114 0,1.2954 0.5334,2.3368 0.5588,1.016 1.4986,1.6002 0.9652,0.5842 2.159,0.5842 z m 19.30398,2.667 q -1.5494,0 -2.7178,-0.6858 -1.1684,-0.7112 -1.8288,-1.9558 -0.635,-1.27 -0.635,-2.921 v -8.4836 h 2.8702 v 8.2296 q 0,0.9398 0.381,1.651 0.381,0.7112 1.0668,1.1176 0.6858,0.381 1.5748,0.381 0.9144,0 1.6002,-0.4064 0.6858,-0.4064 1.0668,-1.143 0.4064,-0.7366 0.4064,-1.7272 v -8.1026 h 2.8448 v 13.7414 h -2.7178 v -2.6924 l 0.3048,0.3556 q -0.4826,1.27 -1.6002,1.9558 -1.1176,0.6858 -2.6162,0.6858 z m 15.06221,0 q -2.1082,0 -3.7084,-1.0414 -1.5748,-1.0414 -2.2098,-2.794 l 2.2098,-1.0414 q 0.5588,1.1684 1.524,1.8542 0.9906,0.6858 2.1844,0.6858 1.016,0 1.651,-0.4572 0.635,-0.4572 0.635,-1.2446 0,-0.508 -0.2794,-0.8128 -0.2794,-0.3302 -0.7112,-0.5334 -0.4064,-0.2032 -0.8382,-0.3048 l -2.159,-0.6096 q -1.778,-0.508 -2.667,-1.524 -0.8636,-1.0414 -0.8636,-2.413 0,-1.2446 0.635,-2.159 0.635,-0.9398 1.7526,-1.4478 1.1176,-0.508 2.5146,-0.508 1.8796,0 3.3528,0.9398 1.4732,0.9144 2.0828,2.5654 l -2.2098,1.0414 q -0.4064,-0.9906 -1.2954,-1.5748 -0.8636,-0.5842 -1.9558,-0.5842 -0.9398,0 -1.4986,0.4572 -0.5588,0.4318 -0.5588,1.143 0,0.4826 0.254,0.8128 0.254,0.3048 0.6604,0.508 0.4064,0.1778 0.8382,0.3048 l 2.2352,0.6604 q 1.7018,0.4826 2.6162,1.524 0.9144,1.016 0.9144,2.4384 0,1.2192 -0.6604,2.159 -0.635,0.9144 -1.778,1.4478 -1.143,0.508 -2.667,0.508 z m 9.32178,-5.9436 -0.2032,-13.2842 h 2.921 l -0.1778,13.2842 z m -0.2032,5.6388 v -3.302 h 2.921 v 3.302 z"
         id="path7" />
      <path
         d="m 285.94646,453.06872 v -18.923 h 2.413 l 10.6172,14.6558 -1.143,0.1778 v -14.8336 h 2.9718 v 18.923 h -2.413 l -10.541,-14.7574 1.0922,-0.2032 v 14.9606 z m 25.12061,0.3048 q -1.9812,0 -3.6322,-0.9398 -1.6256,-0.9398 -2.5908,-2.5654 -0.9652,-1.6256 -0.9652,-3.683 0,-2.0828 0.9652,-3.683 0.9652,-1.6256 2.5908,-2.54 1.6256,-0.9398 3.6322,-0.9398 2.032,0 3.6322,0.9398 1.6256,0.9144 2.5654,2.54 0.9652,1.6002 0.9652,3.683 0,2.0828 -0.9652,3.7084 -0.9652,1.6256 -2.5908,2.5654 -1.6256,0.9144 -3.6068,0.9144 z m 0,-2.667 q 1.2192,0 2.159,-0.5842 0.9398,-0.5842 1.4732,-1.6002 0.5588,-1.0414 0.5588,-2.3368 0,-1.2954 -0.5588,-2.3114 -0.5334,-1.016 -1.4732,-1.6002 -0.9398,-0.5842 -2.159,-0.5842 -1.1938,0 -2.159,0.5842 -0.9398,0.5842 -1.4986,1.6002 -0.5334,1.016 -0.5334,2.3114 0,1.2954 0.5334,2.3368 0.5588,1.016 1.4986,1.6002 0.9652,0.5842 2.159,0.5842 z m 15.64639,2.5146 q -2.159,0 -3.3528,-1.2192 -1.1938,-1.2192 -1.1938,-3.429 v -6.6548 h -2.413 v -2.5908 h 0.381 q 0.9652,0 1.4986,-0.5588 0.5334,-0.5588 0.5334,-1.524 v -1.0668 h 2.8702 v 3.1496 h 3.1242 v 2.5908 h -3.1242 v 6.5278 q 0,0.7112 0.2286,1.2192 0.2286,0.4826 0.7366,0.762 0.508,0.254 1.3208,0.254 0.2032,0 0.4572,-0.0254 0.254,-0.0254 0.4826,-0.0508 v 2.4638 q -0.3556,0.0508 -0.7874,0.1016 -0.4318,0.0508 -0.762,0.0508 z m 10.3378,-0.1524 v -11.1506 h -2.54 v -2.5908 h 2.54 v -0.7112 q 0,-1.5494 0.635,-2.5908 0.635,-1.0668 1.7526,-1.6256 1.143,-0.5588 2.6162,-0.5588 0.2794,0 0.635,0.0508 0.3556,0.0254 0.5842,0.0762 v 2.4892 q -0.2032,-0.0508 -0.4572,-0.0508 -0.254,-0.0254 -0.4064,-0.0254 -1.143,0 -1.8288,0.5334 -0.6858,0.508 -0.6858,1.7018 v 0.7112 h 3.1496 v 2.5908 h -3.1496 v 11.1506 z m 14.7828,0.3048 q -1.9812,0 -3.6322,-0.9398 -1.6256,-0.9398 -2.5908,-2.5654 -0.9652,-1.6256 -0.9652,-3.683 0,-2.0828 0.9652,-3.683 0.9652,-1.6256 2.5908,-2.54 1.6256,-0.9398 3.6322,-0.9398 2.032,0 3.6322,0.9398 1.6256,0.9144 2.5654,2.54 0.9652,1.6002 0.9652,3.683 0,2.0828 -0.9652,3.7084 -0.9652,1.6256 -2.5908,2.5654 -1.6256,0.9144 -3.6068,0.9144 z m 0,-2.667 q 1.2192,0 2.159,-0.5842 0.9398,-0.5842 1.4732,-1.6002 0.5588,-1.0414 0.5588,-2.3368 0,-1.2954 -0.5588,-2.3114 -0.5334,-1.016 -1.4732,-1.6002 -0.9398,-0.5842 -2.159,-0.5842 -1.1938,0 -2.159,0.5842 -0.9398,0.5842 -1.4986,1.6002 -0.5334,1.016 -0.5334,2.3114 0,1.2954 0.5334,2.3368 0.5588,1.016 1.4986,1.6002 0.9652,0.5842 2.159,0.5842 z m 9.9568,2.3622 v -13.7414 h 2.7432 v 2.7686 l -0.254,-0.4064 q 0.4572,-1.3462 1.4732,-1.9304 1.016,-0.6096 2.4384,-0.6096 h 0.8382 v 2.6162 h -1.1938 q -1.4224,0 -2.3114,0.889 -0.8636,0.8636 -0.8636,2.4892 v 7.9248 z m 13.63976,0 v -13.7414 h 2.7432 v 2.7686 l -0.254,-0.4064 q 0.4572,-1.3462 1.4732,-1.9304 1.016,-0.6096 2.4384,-0.6096 h 0.8382 v 2.6162 h -1.1938 q -1.4224,0 -2.3114,0.889 -0.8636,0.8636 -0.8636,2.4892 v 7.9248 z m 15.64639,0.3048 q -2.0574,0 -3.6576,-0.9398 -1.5748,-0.9652 -2.4638,-2.5908 -0.889,-1.651 -0.889,-3.683 0,-2.0828 0.889,-3.683 0.9144,-1.6002 2.4384,-2.5146 1.524,-0.9398 3.4544,-0.9398 1.54939,0 2.76859,0.5334 1.2192,0.5334 2.0574,1.4732 0.8382,0.9144 1.27,2.1082 0.4572,1.1938 0.4572,2.54 0,0.3302 -0.0254,0.6858 -0.0254,0.3556 -0.1016,0.6604 h -10.94739 v -2.286 h 9.32179 l -1.3716,1.0414 q 0.254,-1.2446 -0.1778,-2.2098 -0.4064,-0.9906 -1.27,-1.5494 -0.8382,-0.5842 -1.98119,-0.5842 -1.143,0 -2.032,0.5842 -0.889,0.5588 -1.3716,1.6256 -0.4826,1.0414 -0.381,2.54 -0.127,1.397 0.381,2.4384 0.5334,1.0414 1.4732,1.6256 0.9652,0.5842 2.1844,0.5842 1.24459,0 2.10819,-0.5588 0.889,-0.5588 1.397,-1.4478 l 2.3368,1.143 q -0.4064,0.9652 -1.27,1.7526 -0.8382,0.762 -2.032,1.2192 -1.1684,0.4318 -2.56539,0.4318 z m 9.11862,-0.3048 v -19.2278 h 2.8702 v 19.2278 z m 12.67462,0.3048 q -2.0574,0 -3.6576,-0.9398 -1.5748,-0.9652 -2.4638,-2.5908 -0.889,-1.651 -0.889,-3.683 0,-2.0828 0.889,-3.683 0.9144,-1.6002 2.4384,-2.5146 1.524,-0.9398 3.4544,-0.9398 1.5494,0 2.7686,0.5334 1.2192,0.5334 2.0574,1.4732 0.8382,0.9144 1.27,2.1082 0.4572,1.1938 0.4572,2.54 0,0.3302 -0.0254,0.6858 -0.0254,0.3556 -0.1016,0.6604 h -10.9474 v -2.286 h 9.3218 l -1.3716,1.0414 q 0.254,-1.2446 -0.1778,-2.2098 -0.4064,-0.9906 -1.27,-1.5494 -0.8382,-0.5842 -1.9812,-0.5842 -1.143,0 -2.032,0.5842 -0.889,0.5588 -1.3716,1.6256 -0.4826,1.0414 -0.381,2.54 -0.127,1.397 0.381,2.4384 0.5334,1.0414 1.4732,1.6256 0.9652,0.5842 2.1844,0.5842 1.2446,0 2.1082,-0.5588 0.889,-0.5588 1.397,-1.4478 l 2.3368,1.143 q -0.4064,0.9652 -1.27,1.7526 -0.8382,0.762 -2.032,1.2192 -1.1684,0.4318 -2.5654,0.4318 z m 13.10639,0 q -1.397,0 -2.4638,-0.4826 -1.0414,-0.508 -1.6256,-1.3716 -0.5842,-0.889 -0.5842,-2.0828 0,-1.1176 0.4826,-2.0066 0.508,-0.889 1.5494,-1.4986 1.0414,-0.6096 2.6162,-0.8636 l 4.7752,-0.7874 v 2.2606 l -4.2164,0.7366 q -1.143,0.2032 -1.6764,0.7366 -0.5334,0.508 -0.5334,1.3208 0,0.7874 0.5842,1.2954 0.6096,0.4826 1.5494,0.4826 1.1684,0 2.032,-0.508 0.889,-0.508 1.3716,-1.3462 0.4826,-0.8636 0.4826,-1.905 v -3.5306 q 0,-1.016 -0.762,-1.651 -0.7366,-0.6604 -1.9812,-0.6604 -1.143,0 -2.0066,0.6096 -0.8382,0.5842 -1.2446,1.524 l -2.3876,-1.1938 q 0.381,-1.016 1.2446,-1.778 0.8636,-0.7874 2.0066,-1.2192 1.1684,-0.4318 2.4638,-0.4318 1.6256,0 2.8702,0.6096 1.27,0.6096 1.9558,1.7018 0.7112,1.0668 0.7112,2.4892 v 9.2456 h -2.7432 v -2.4892 l 0.5842,0.0762 q -0.4826,0.8382 -1.2446,1.4478 -0.7366,0.6096 -1.7018,0.9398 -0.9398,0.3302 -2.1082,0.3302 z m 15.64638,0 q -2.1082,0 -3.7084,-1.0414 -1.5748,-1.0414 -2.2098,-2.794 l 2.2098,-1.0414 q 0.5588,1.1684 1.524,1.8542 0.9906,0.6858 2.1844,0.6858 1.016,0 1.651,-0.4572 0.635,-0.4572 0.635,-1.2446 0,-0.508 -0.2794,-0.8128 -0.2794,-0.3302 -0.7112,-0.5334 -0.4064,-0.2032 -0.8382,-0.3048 l -2.159,-0.6096 q -1.778,-0.508 -2.667,-1.524 -0.8636,-1.0414 -0.8636,-2.413 0,-1.2446 0.635,-2.159 0.635,-0.9398 1.7526,-1.4478 1.1176,-0.508 2.5146,-0.508 1.8796,0 3.3528,0.9398 1.4732,0.9144 2.0828,2.5654 l -2.2098,1.0414 q -0.4064,-0.9906 -1.2954,-1.5748 -0.8636,-0.5842 -1.9558,-0.5842 -0.9398,0 -1.4986,0.4572 -0.5588,0.4318 -0.5588,1.143 0,0.4826 0.254,0.8128 0.254,0.3048 0.6604,0.508 0.4064,0.1778 0.8382,0.3048 l 2.2352,0.6604 q 1.7018,0.4826 2.6162,1.524 0.9144,1.016 0.9144,2.4384 0,1.2192 -0.6604,2.159 -0.635,0.9144 -1.778,1.4478 -1.143,0.508 -2.667,0.508 z m 14.37638,0 q -2.0574,0 -3.6576,-0.9398 -1.5748,-0.9652 -2.4638,-2.5908 -0.889,-1.651 -0.889,-3.683 0,-2.0828 0.889,-3.683 0.9144,-1.6002 2.4384,-2.5146 1.524,-0.9398 3.4544,-0.9398 1.5494,0 2.7686,0.5334 1.2192,0.5334 2.0574,1.4732 0.8382,0.9144 1.27,2.1082 0.4572,1.1938 0.4572,2.54 0,0.3302 -0.0254,0.6858 -0.0254,0.3556 -0.1016,0.6604 h -10.9474 v -2.286 h 9.3218 l -1.3716,1.0414 q 0.254,-1.2446 -0.1778,-2.2098 -0.4064,-0.9906 -1.27,-1.5494 -0.8382,-0.5842 -1.9812,-0.5842 -1.143,0 -2.032,0.5842 -0.889,0.5588 -1.3716,1.6256 -0.4826,1.0414 -0.381,2.54 -0.127,1.397 0.381,2.4384 0.5334,1.0414 1.4732,1.6256 0.9652,0.5842 2.1844,0.5842 1.2446,0 2.1082,-0.5588 0.889,-0.5588 1.397,-1.4478 l 2.3368,1.143 q -0.4064,0.9652 -1.27,1.7526 -0.8382,0.762 -2.032,1.2192 -1.1684,0.4318 -2.5654,0.4318 z m 10.51562,-5.9436 -0.2032,-13.2842 h 2.921 l -0.1778,13.2842 z m -0.2032,5.6388 v -3.302 h 2.921 v 3.302 z"
         id="path8" />
    </g>
  </g>
</svg>
