<?xml version="1.0" encoding="UTF-8" standalone="no"?>
<!-- Created with Inkscape (http://www.inkscape.org/) -->

<svg
   width="900mm"
   height="1897mm"
   viewBox="0 0 900 1897"
   version="1.1"
   id="svg1"
   inkscape:version="1.3.2 (091e20e, 2023-11-25, custom)"
   sodipodi:docname="screen.svg"
   xmlns:inkscape="http://www.inkscape.org/namespaces/inkscape"
   xmlns:sodipodi="http://sodipodi.sourceforge.net/DTD/sodipodi-0.dtd"
   xmlns:xlink="http://www.w3.org/1999/xlink"
   xmlns="http://www.w3.org/2000/svg"
   xmlns:svg="http://www.w3.org/2000/svg">
  <sodipodi:namedview
     id="namedview1"
     pagecolor="#ffffff"
     bordercolor="#000000"
     borderopacity="0.25"
     inkscape:showpageshadow="2"
     inkscape:pageopacity="0.0"
     inkscape:pagecheckerboard="0"
     inkscape:deskcolor="#d1d1d1"
     inkscape:document-units="mm"
     inkscape:zoom="0.079619985"
     inkscape:cx="973.37371"
     inkscape:cy="3497.8655"
     inkscape:window-width="1536"
     inkscape:window-height="953"
     inkscape:window-x="-8"
     inkscape:window-y="-8"
     inkscape:window-maximized="1"
     inkscape:current-layer="layer1" />
  <defs
     id="defs1">
    <inkscape:path-effect
       effect="spiro"
       id="path-effect10"
       is_visible="true"
       lpeversion="1" />
    <inkscape:path-effect
       effect="spiro"
       id="path-effect8"
       is_visible="true"
       lpeversion="1" />
    <linearGradient
       id="linearGradient8"
       inkscape:collect="always">
      <stop
         style="stop-color:#e208ff;stop-opacity:1;"
         offset="0"
         id="stop8" />
      <stop
         style="stop-color:#8635ff;stop-opacity:1;"
         offset="0.53647059"
         id="stop7" />
      <stop
         style="stop-color:#0025f1;stop-opacity:1;"
         offset="1"
         id="stop6" />
    </linearGradient>
    <inkscape:path-effect
       effect="spiro"
       id="path-effect5"
       is_visible="true"
       lpeversion="1" />
    <inkscape:path-effect
       effect="spiro"
       id="path-effect4"
       is_visible="true"
       lpeversion="1" />
    <linearGradient
       id="linearGradient2"
       inkscape:collect="always">
      <stop
         style="stop-color:#0025f1;stop-opacity:1;"
         offset="0"
         id="stop2" />
      <stop
         style="stop-color:#8635ff;stop-opacity:1;"
         offset="0.46352941"
         id="stop4" />
      <stop
         style="stop-color:#e208ff;stop-opacity:1;"
         offset="1"
         id="stop3" />
    </linearGradient>
    <inkscape:path-effect
       effect="spiro"
       id="path-effect2"
       is_visible="true"
       lpeversion="1" />
    <inkscape:path-effect
       effect="spiro"
       id="path-effect1"
       is_visible="true"
       lpeversion="1" />
    <linearGradient
       inkscape:collect="always"
       xlink:href="#linearGradient2"
       id="linearGradient3"
       x1="95.721942"
       y1="990.64654"
       x2="694.68218"
       y2="990.64654"
       gradientUnits="userSpaceOnUse" />
    <linearGradient
       inkscape:collect="always"
       xlink:href="#linearGradient8"
       id="linearGradient6"
       x1="-231.1358"
       y1="944.89844"
       x2="845.19482"
       y2="944.89844"
       gradientUnits="userSpaceOnUse" />
    <linearGradient
       inkscape:collect="always"
       xlink:href="#linearGradient8"
       id="linearGradient10"
       x1="-63.833263"
       y1="1051.1354"
       x2="1025.2103"
       y2="1051.1354"
       gradientUnits="userSpaceOnUse" />
    <linearGradient
       inkscape:collect="always"
       xlink:href="#linearGradient2"
       id="linearGradient12"
       x1="-172.73398"
       y1="354.37448"
       x2="1216.2358"
       y2="354.37448"
       gradientUnits="userSpaceOnUse" />
  </defs>
  <g
     inkscape:label="Layer 1"
     inkscape:groupmode="layer"
     id="layer1">
    <path
       style="fill:none;stroke-width:66.9999;stroke:url(#linearGradient3);stroke-opacity:1"
       d="m 112.98461,-66.461539 c 43.50892,-8.372544 90.6874,5.305543 122.97084,35.651971 32.28343,30.34642783 48.85085,76.589482 43.18301,120.532643 -3.42795,26.577175 -14.41459,51.722045 -28.49848,74.519885 -14.08388,22.79785 -31.25989,43.49912 -48.23732,64.23228 -16.97743,20.73317 -33.88842,41.68517 -47.35466,64.8532 -13.46624,23.16803 -23.45269,48.81013 -25.448,75.53308 -1.88602,25.25917 3.47669,50.8073 13.78608,73.94383 10.30939,23.13654 25.45606,43.93103 43.07971,62.12416 35.2473,36.38625 79.75598,62.14762 123.44385,87.79333 43.68786,25.64571 87.86007,52.20617 121.90254,89.72206 17.02124,18.75795 31.32719,40.18367 40.49322,63.79652 9.16603,23.61285 13.06864,49.47596 9.54074,74.55856 -5.43334,38.62989 -28.0348,73.11302 -55.89502,100.41865 -27.86022,27.30563 -61.00352,48.4746 -93.20064,70.50037 -32.19713,22.0258 -64.11613,45.5084 -88.2142,76.1853 -12.04903,15.3384 -22.0324,32.413 -28.41292,50.845 -6.38051,18.4319 -9.09364,38.2538 -6.76952,57.6199 2.74107,22.8403 12.46241,44.5898 26.43295,62.866 13.97054,18.2761 32.08387,33.1672 51.95639,44.755 39.74505,23.1756 85.67911,33.0723 130.97336,41.1474 45.29425,8.0752 91.36955,14.8115 133.80103,32.5976 21.21574,8.8931 41.40124,20.5609 58.67068,35.7583 17.26944,15.1974 31.57219,34.0168 40.13481,55.368 13.71527,34.1996 11.98318,73.1882 1.16591,108.4118 -10.81727,35.2237 -30.16551,67.2088 -51.23188,97.44 -21.06638,30.2312 -44.06137,59.1624 -63.33759,90.5654 -19.27622,31.403 -34.91012,65.7865 -39.45797,102.352 -6.0303,48.4847 8.63228,99.2001 39.60489,136.9867 30.97261,37.7866 77.82376,62.1179 126.54897,65.721"
       id="path1"
       inkscape:path-effect="#path-effect2"
       inkscape:original-d="M 112.98461,-66.461539 C 172.8,-15.507692 225.96923,38.769231 279.13846,89.723075 332.30769,140.67692 180.55384,275.81537 129.6,368.86152 78.646154,461.9077 363.32308,667.93845 481.84614,820.79998 600.36921,973.66152 300.1846,1058.9538 209.35384,1176.3692 c -90.83077,117.4154 293.53845,182.7693 441.96922,272.4923 148.43078,89.7231 -99.6923,264.7385 -152.86153,398.7692 -53.16924,134.0308 109.66153,135.1385 166.15386,202.7077" />
    <path
       style="fill:none;stroke:url(#linearGradient6);stroke-width:66.9999"
       d="M 824.12307,23.261538 C 787.65431,-6.246001 740.98976,-22.899995 694.07918,-23.149499 647.1686,-23.399003 600.32954,-7.2423276 563.54897,21.875619 526.7684,50.993566 500.29531,92.875674 489.77425,138.59189 c -10.52106,45.71622 -5.01886,94.95707 15.33342,137.22348 21.25588,44.14295 57.11249,79.15574 88.85454,116.47671 15.87102,18.66049 30.91183,38.19365 42.57332,59.73692 11.6615,21.54328 19.89017,45.24573 21.43368,69.69406 2.72022,43.08665 -15.99607,86.01242 -45.82355,117.22428 -29.82748,31.21186 -69.92101,51.3693 -111.72081,62.1691 -83.5996,21.5996 -171.58677,7.34758 -257.84024,3.37586 -56.38673,-2.59645 -113.26163,-0.68638 -168.576985,10.55714 -55.31535,11.24353 -109.161204,32.07054 -154.987679,65.02716 -45.826476,32.95662 -83.349036,78.46708 -102.597836,131.53014 -19.2488,53.06306 -19.28309,113.70916 4.13174,165.07016 17.39443,38.1551 46.81534,69.982 80.652084,94.7499 33.836747,24.768 72.078835,42.876 110.990878,58.5039 77.824085,31.2557 161.101188,54.1551 227.064728,105.9462 78.29309,61.4716 124.03607,161.8357 120.39062,261.3107 -3.64545,99.475 -56.13064,195.7339 -137.00601,253.7662 -86.94839,62.39 -204.892107,79.0559 -305.723072,43.2"
       id="path4"
       inkscape:path-effect="#path-effect5"
       inkscape:original-d="M 824.12307,23.261538 C 717.7846,105.23077 611.44615,190.52307 505.10767,275.81537 398.76923,361.10769 605.90768,439.75385 657.96921,521.72306 710.03077,603.6923 382.15384,641.35383 242.58461,704.4923 c -139.56923,63.13845 -279.138456,249.23075 -422.03076,372.1846 -142.89231,122.9538 274.707687,173.9077 418.70769,259.2 143.99998,85.2923 -7.75385,341.1692 -16.61539,515.0769 -8.86154,173.9077 -204.923073,31.0154 -305.723072,43.2"
       transform="translate(-9.9692308,-69.784615)" />
    <path
       style="fill:none;stroke:url(#linearGradient10);stroke-width:66.9999;stroke-opacity:1"
       d="M -43.199999,169.47692 C 14.144374,124.64436 89.303686,103.28299 161.6556,111.25396 c 72.3519,7.97097 141.05833,45.18197 187.26748,101.42296 31.64813,38.51883 52.60497,84.87515 67.14361,132.56092 14.53864,47.68576 22.95325,96.98052 31.85764,146.03168 8.90439,49.05116 18.39157,98.22528 34.95698,145.2454 16.5654,47.02012 40.57053,92.12039 75.3956,127.79277 42.31332,43.34283 98.15515,70.56613 153.77286,94.55964 55.61771,23.9935 112.89832,45.98327 161.91945,81.56342 32.7846,23.79547 61.45337,53.56907 82.30913,88.29795 20.85577,34.7288 33.74706,74.4795 35.27862,114.9605 1.53157,40.481 -8.54197,81.609 -30.26675,115.8009 -21.72479,34.192 -55.26746,61.0892 -93.96715,73.0637 -30.03037,9.292 -62.36712,9.5816 -93.33115,4.1599 -30.96403,-5.4216 -60.7128,-16.3898 -89.39446,-29.2555 -57.3633,-25.7315 -111.8214,-59.4656 -172.84361,-74.5967 -47.71498,-11.8314 -98.52688,-11.6623 -145.81171,1.7856 -47.28483,13.448 -90.86942,40.2947 -123.15879,77.3636 -32.28937,37.0688 -53.00074,84.3346 -57.0527,133.3273 -4.05196,48.9927 8.81267,99.4344 36.9155,139.7697 34.63129,49.7054 89.4019,81.5653 145.09082,105.4127 55.68892,23.8473 114.25886,41.4037 167.27841,70.7103 97.76693,54.0408 172.47041,148.3387 202.70769,255.877"
       id="path8"
       inkscape:path-effect="#path-effect8"
       inkscape:original-d="m -43.199999,169.47692 c 132.923074,16.61538 262.523069,29.90769 392.123079,43.2 129.6,13.29231 139.56921,367.75384 209.35383,551.63077 69.78462,183.87692 210.46154,117.41538 315.69231,176.12306 105.23077,58.70769 -2.21538,259.19995 -6.64615,392.12305 -4.43076,132.9231 -239.26154,-64.2461 -355.56922,-99.6923 -116.30771,-35.4461 -194.95386,234.8308 -289.1077,352.2462 -94.15384,117.4154 210.46155,117.4154 312.36923,176.123 101.90768,58.7077 135.13845,170.5847 202.70769,255.877" />
    <path
       style="fill:none;stroke:url(#linearGradient12);stroke-width:66.9999;stroke-opacity:1"
       d="m -139.56923,199.38461 c 8.24726,57.86123 40.273367,111.96903 87.030198,147.03665 46.7568311,35.06763 107.667627,50.66251 165.523642,42.37873 45.29159,-6.48482 87.33229,-26.6395 128.34181,-46.92744 41.00952,-20.28793 82.52766,-41.2131 127.5351,-49.4418 41.47995,-7.58377 84.49599,-3.98702 125.36541,6.39524 40.86941,10.38226 79.77923,27.40151 117.27805,46.68723 74.99764,38.57142 145.78953,86.74559 225.91039,113.07139 118.71546,39.00707 253.68723,25.38606 362.21533,-36.55385"
       id="path10"
       inkscape:path-effect="#path-effect10"
       inkscape:original-d="M -139.56923,199.38461 C -57.6,260.30769 27.692307,324.55384 112.98461,388.79999 198.27692,453.04614 281.35384,326.76922 368.86152,292.43075 456.36923,258.0923 685.66153,398.76923 837.41537,458.58461 989.16923,518.4 1076.6769,436.43076 1199.6307,422.03076" />
  </g>
</svg>
